<?xml version="1.0" encoding="UTF-8" standalone="no"?>
<!DOCTYPE svg PUBLIC "-//W3C//DTD SVG 1.1//EN"
"http://www.w3.org/Graphics/SVG/1.1/DTD/svg11.dtd">
<svg version="1.1" xmlns="http://www.w3.org/2000/svg" xmlns:xlink="http://www.w3.org/1999/xlink">
<defs>
<clipPath id="c0_1"><path d="M0.5,935.5l0,-588l551,0l0,588Z" /></clipPath>
<clipPath id="c1_1"><path d="M377.5,410.5l-286,-83l19,-66l286,82l-19,67Z" /></clipPath>
<clipPath id="c2_1"><path d="M373.5,398.5l-272,-78l15,-53l273,78l-16,53Z" /></clipPath>
<clipPath id="c3_1"><path d="M0.5,935.5l0,-935l605,0l0,935Z" /></clipPath>
<clipPath id="c4_1"><path d="M418.5,718.5l-49,-4l4,-46l49,4l-4,46Z" /></clipPath>
<clipPath id="c5_1"><path d="M419.5,703.5l-49,-4l3,-31l49,4l-3,31Z" /></clipPath>
<style type="text/css"><![CDATA[
.g9_1{
fill: #DB003C;
}
.g5_1{
fill: none;
stroke: #FFFFFF;
stroke-width: 2;
stroke-linecap: butt;
stroke-linejoin: miter;
stroke-miterlimit: 4;
stroke-opacity: 0.39999402;
stroke-dasharray: 46,6,16,6;
}
.g8_1{
}
.g1_1{
fill: none;
stroke: #000000;
stroke-width: 2;
stroke-linecap: butt;
stroke-linejoin: miter;
stroke-miterlimit: 4;
}
.g6_1{
fill: #FFFFFF;
fill-opacity: 0.60000604;
}
.g10_1{
fill: #FFFFFF;
}
.g2_1{
fill: none;
stroke: #FFFFFF;
stroke-width: 2;
stroke-linecap: butt;
stroke-linejoin: miter;
stroke-miterlimit: 4;
stroke-opacity: 0.39999402;
}
.g7_1{
fill: none;
stroke: #FFFFFF;
stroke-width: 2;
stroke-linecap: round;
stroke-linejoin: round;
stroke-opacity: 0.60000604;
}
.g11_1{
fill: none;
stroke: #DB003C;
stroke-width: 2;
stroke-linecap: butt;
stroke-linejoin: miter;
stroke-miterlimit: 4;
}
.g4_1{
fill: #FFFFFF;
fill-opacity: 0.39999402;
}
.g3_1{
fill: #787878;
fill-opacity: 0.39999402;
}
]]></style>
</defs>
<image x="0" y="0" width="606" height="938" xlink:href="shade/1.png" />
<g clip-path="url(#c0_1)">
<path d="M-53,548L207,810M489,651C489,807,363,933,208,933C52,933,-73,807,-73,651C-73,496,52,370,208,370c155,0,281,126,281,281Z" class="g2_1" />
<path d="M208,592c-33,0,-60,26,-60,59c0,33,27,60,60,60c33,0,59,-27,59,-60c0,-33,-26,-59,-59,-59m132,59c0,73,-59,132,-132,132C135,783,76,724,76,651C76,578,135,519,208,519c73,0,132,59,132,132Z" class="g3_1" />
<path d="M208,592c-33,0,-60,26,-60,59c0,33,27,60,60,60c33,0,59,-27,59,-60c0,-33,-26,-59,-59,-59ZM340,651c0,73,-59,132,-132,132C135,783,76,724,76,651C76,578,135,519,208,519c73,0,132,59,132,132ZM97,392L208,504M73,404L189,520M0,462L104,569M-15,480L91,588M-62,573L207,844M-72,668L189,932M-66,711L148,927M81,615l92,-92M78,678L208,548M94,719l56,-55m-31,85l52,-51m-10,76l47,-46m68,-10L140,583" class="g2_1" />
<path d="M148,581L125,567l13,24Z" class="g4_1" />
<path d="M268,720l24,14L278,710Z" class="g4_1" />
<path d="M207,347l0,607M-95,650l606,0" class="g5_1" />
<path d="M233,711l314,0M233,594l314,0M223,465l130,0m184,58l0,34" class="g2_1" />
<path d="M530,552l7,26l7,-26Z" class="g4_1" />
<path d="M537,779l0,-33" class="g2_1" />
<path d="M544,751l-7,-26l-7,26Z" class="g4_1" />
<path d="M291,465l-20,33" class="g2_1" />
<path d="M268,490l-7,26l19,-19Z" class="g4_1" />
<path d="M302,744l22,22l27,0" class="g2_1" />
<path d="M348,511c-1,-4,-3,-6,-6,-6c-7,0,-9,5,-9,11c0,4,3,9,8,9c4,0,7,-2,7,-6l5,0c-1,6,-5,10,-12,10c-8,0,-12,-6,-12,-13c0,-8,4,-14,12,-14c6,0,11,2,11,9Z" class="g4_1" />
<path d="M361,496l19,-19" class="g2_1" />
<path d="M382,486l13,-24l-23,14Z" class="g4_1" />
<path d="M33,823L318,539" class="g2_1" />
<path d="M31,815L17,838L41,825Z" class="g4_1" />
</g>
<g clip-path="url(#c1_1)">
<path d="M110,292c0,1,0,2,0,3c1,0,1,1,2,1c1,0,1,0,2,0c0,-1,1,-1,1,-2c1,-1,0,-2,0,-3c0,-1,-1,-1,-1,-1c-1,-1,-2,0,-2,0c-1,1,-2,1,-2,2m2,-8l6,2l0,1l-5,-1c1,1,1,2,2,3c1,1,2,2,2,2c0,1,0,2,0,3c-1,1,-1,2,-2,3c-1,0,-2,0,-4,0c-1,0,-2,-1,-2,-2c-1,-1,-1,-2,0,-3c0,-2,1,-3,2,-3c1,-1,2,-1,3,-1c-1,0,-2,-1,-3,-3Z" class="g6_1" />
<path d="M126,297l-8,-2l0,-1l8,2ZM127,294l-8,-2l0,-2l8,3Z" class="g6_1" />
<path d="M136,291c0,1,0,2,0,3c0,0,0,1,1,1c1,0,1,0,2,0c1,-1,1,-1,1,-2c1,-2,1,-2,0,-3c0,-1,0,-1,-1,-1c-1,0,-1,0,-2,0c0,0,-1,1,-1,2m-1,5l-2,-1l4,-12l1,1l-1,4c1,-1,2,-1,3,0c0,0,1,0,1,0c0,1,1,1,1,1c0,1,0,1,0,2c0,1,0,1,0,2c0,1,-1,2,-2,3c-1,1,-2,1,-3,0c-1,0,-2,-1,-2,-2Z" class="g6_1" />
<path d="M146,292l3,1c1,0,2,0,2,0c1,0,1,-1,1,-1c1,-1,1,-1,0,-2l0,-1c-1,0,-1,0,-2,0l-3,-1ZM143,298l3,-12l5,1c0,1,1,1,1,1c1,0,1,1,2,1c0,0,0,1,0,1c0,1,0,1,0,2c0,1,-1,2,-2,2c0,1,-2,1,-3,0l-3,0l-2,4Z" class="g6_1" />
<path d="M131,298l30,8l0,-1l-29,-8Z" class="g6_1" />
<path d="M170,301c-1,1,-1,2,-1,2c1,1,1,2,2,2c1,0,1,0,2,-1c0,0,1,-1,1,-2c0,-1,1,-2,0,-2c0,-1,-1,-1,-1,-2c-1,0,-1,0,-2,1c-1,0,-1,1,-1,2m-2,4l-1,0l3,-12l2,1l-1,4c1,-1,1,-1,2,-1c1,0,1,1,2,1c0,0,0,1,1,1c0,1,0,1,0,2c0,0,0,1,0,2c-1,1,-1,2,-2,3c-1,0,-2,0,-3,0c-1,0,-2,-1,-2,-2Z" class="g6_1" />
<path d="M183,300l0,1l-5,-1c0,0,0,-1,0,-1c0,0,1,0,1,-1c0,0,1,0,1,0c1,-1,2,-1,2,-1c1,-1,1,-1,1,-1c0,-1,0,-1,0,-1c0,-1,0,-1,-1,-1c0,0,-1,0,-1,0c0,0,-1,0,-1,1l-1,0c1,-1,1,-2,2,-2c0,0,1,0,1,0c1,0,2,1,2,1c0,1,0,1,0,2l0,1c-1,0,-1,0,-1,0c-1,1,-1,1,-2,1c-1,1,-1,1,-1,1c0,0,-1,0,-1,0Z" class="g6_1" />
<path d="M190,309l1,-3l-3,-1l0,-1l3,1l1,-3l2,0l-1,3l3,1l0,1l-4,0l-1,3Z" class="g6_1" />
<path d="M207,313l1,0c0,1,-1,2,-2,2c0,1,-1,1,-2,1c-1,-1,-2,-1,-3,-2c0,-1,0,-3,0,-4c1,-1,1,-2,1,-2c1,-1,2,-1,2,-1c1,-1,2,0,2,0c1,0,2,0,3,1c0,1,0,1,0,2l-1,0c0,0,0,-1,-1,-1c0,-1,0,-1,-1,-1c-1,0,-1,0,-2,0c0,1,-1,1,-1,2c-1,2,-1,2,0,3c0,1,1,1,1,1c1,1,1,1,2,0c0,0,1,0,1,-1Z" class="g6_1" />
<path d="M215,310l-5,-1l0,-1c1,0,1,0,1,0c1,-1,1,-1,2,-1c1,-1,1,-1,2,-1c0,-1,0,-1,1,-1c0,-1,0,-1,-1,-1c0,-1,0,-1,0,-1c-1,0,-1,0,-2,0c0,0,0,1,0,1l-1,0c0,-1,0,-1,1,-2c0,0,1,0,2,0c0,1,1,1,1,1c1,1,1,2,0,2c0,0,0,1,0,1l-1,1c0,0,-1,0,-2,1c0,0,-1,0,-1,0l0,1Z" class="g6_1" />
<path d="M165,307l47,14l1,-1L166,306Z" class="g6_1" />
<path d="M222,319l1,-4l-3,0l1,-2l3,1l1,-3l1,0l-1,3l3,1l0,2l-3,-1l-1,3Z" class="g6_1" />
<path d="M242,317l-2,9l-1,-1l0,-1c0,1,-1,1,-1,1c-1,0,-1,0,-2,0l-1,-1l0,-1l-1,4l-2,0l4,-12l1,1l-1,3c0,2,-1,2,-1,3c0,0,1,1,1,1l1,1c0,0,1,0,1,0c0,-1,1,-1,1,-1c0,0,1,-1,1,-3l1,-3Z" class="g6_1" />
<path d="M242,327c0,0,1,1,1,1l1,0c0,0,0,1,1,0c0,0,0,-1,0,-1l-1,0c-1,-1,-1,-1,-1,-1c0,0,-1,-1,-1,-1l0,-1c0,0,1,0,1,0l0,-1c0,0,1,0,1,0c0,0,1,0,1,0c0,1,1,1,1,1l0,1c0,0,1,0,0,1l0,-1l-1,0c0,0,0,-1,0,-1c-1,0,-1,0,-1,0c-1,0,-1,0,-1,1l1,0c0,0,0,1,0,1c1,0,1,0,2,1c0,0,0,1,0,1c0,0,0,1,-1,1c-1,0,-1,0,-2,0c0,0,-1,0,-1,-1c0,0,-1,-1,0,-1Z" class="g6_1" />
<path d="M255,328l1,-3l-3,-1l1,-1l3,1l1,-4l1,1l-1,3l3,1l0,1l-3,-1l-1,4Z" class="g6_1" />
<path d="M269,329c-1,1,-1,2,-1,3c1,0,1,1,2,1c1,0,1,0,2,0c0,-1,1,-1,1,-2c0,-1,1,-2,0,-3c0,-1,-1,-1,-1,-1c-1,0,-1,0,-2,0c-1,1,-1,1,-1,2m-2,5l-1,-1l3,-12l2,1l-1,4c0,-1,1,-1,2,0c1,0,1,0,2,0c0,1,0,1,1,2c0,0,0,1,0,1c0,1,0,1,0,2c-1,1,-1,2,-2,3c-1,1,-2,1,-3,0c-1,0,-2,0,-2,-1Z" class="g6_1" />
<path d="M279,330l3,1c1,0,2,0,2,0c1,0,1,-1,1,-1c0,-1,0,-1,0,-2l-1,-1l-1,0l-3,-1ZM275,336l4,-12l4,1c1,1,2,1,2,1c1,0,1,1,1,1c1,0,1,1,1,1c0,1,0,2,0,2c0,1,-1,2,-2,2c-1,1,-2,1,-4,0l-3,0l-1,4Z" class="g6_1" />
<path d="M264,336l25,7l0,-1l-25,-7Z" class="g6_1" />
<path d="M302,339c-1,0,-2,0,-3,0c0,0,-1,0,-1,0c0,0,-1,0,-1,0l0,1l0,1c0,0,1,0,1,0c1,1,1,1,2,0c0,0,1,0,1,0c0,-1,0,-1,1,-2ZM301,342c-1,0,-1,1,-2,1c0,0,-1,0,-2,-1c0,0,-1,0,-2,-1c0,0,0,-1,0,-2c0,0,1,-1,1,-1l1,-1c0,0,1,0,1,0c0,0,1,0,1,0c2,1,2,1,3,1c0,-1,0,-1,0,-1c0,0,0,-1,0,-1c0,0,-1,-1,-1,-1c-1,0,-2,0,-2,0c0,0,-1,0,-1,1l-1,-1c0,0,0,-1,1,-1c0,0,1,0,1,0c1,0,1,0,2,0c1,0,1,0,2,1c0,0,1,0,1,1l0,1l0,1l-1,2c0,1,-1,2,-1,2c0,1,0,1,0,2l-1,-1c0,0,0,-1,0,-1Z" class="g6_1" />
<path d="M311,337l0,1l-5,-2c0,0,1,-1,1,-1c0,0,1,0,1,-1c1,0,2,0,2,-1c1,0,1,0,1,-1l0,-1l-1,0c0,-1,-1,-1,-1,0c0,0,-1,0,-1,1l-1,-1c1,0,1,-1,2,-1c0,0,1,0,1,0c1,0,2,0,2,1c0,0,0,1,0,2c-1,1,-1,1,-1,1c-1,0,-1,1,-2,1c-1,0,-1,0,-1,1c0,0,-1,0,-1,0Z" class="g6_1" />
<path d="M318,346l1,-3l-3,-1l0,-1l3,1l1,-4l2,1l-1,3l3,1l0,1l-4,-1l-1,3Z" class="g6_1" />
<path d="M331,347c0,1,0,2,0,3c0,0,1,1,1,1c1,0,2,0,2,0c1,-1,1,-1,2,-2c0,-2,0,-2,0,-3c-1,-1,-1,-1,-2,-1c0,-1,-1,0,-2,0c0,0,-1,1,-1,2m-1,4l-1,0l3,-12l1,1l-1,4c1,-1,2,-1,3,0c0,0,1,0,1,0c1,1,1,1,1,1c0,1,0,1,0,2c0,1,0,1,0,2c0,1,-1,2,-2,3c-1,1,-2,1,-3,0c-1,0,-1,-1,-2,-2Z" class="g6_1" />
<path d="M344,347l-5,-1l0,-1c1,0,1,0,1,0c1,-1,1,-1,2,-1c1,-1,1,-1,2,-1c0,-1,1,-1,1,-1c0,-1,0,-1,-1,-1c0,-1,0,-1,0,-1c-1,0,-1,0,-2,0c0,0,0,1,0,1l-1,0c0,-1,0,-1,1,-2c1,0,1,0,2,0c1,1,1,1,1,1c1,1,1,2,1,2c-1,0,-1,1,-1,1l-1,1c0,0,-1,0,-2,1c0,0,-1,0,-1,0l0,1Z" class="g6_1" />
<path d="M293,344l49,14l0,-1L294,343Z" class="g6_1" />
<path d="M348,353l0,-2l9,3l0,1Z" class="g6_1" />
<path d="M371,354l-3,9l-1,-1l0,-1c0,0,0,1,-1,1c0,0,-1,0,-1,0c-1,0,-1,-1,-1,-1c0,0,-1,0,-1,-1l-1,4l-2,0l4,-12l1,0l-1,4c0,1,0,2,0,3l0,1c0,0,1,0,1,0c1,1,1,1,1,0c1,0,1,0,1,0c1,-1,1,-1,1,-3l1,-3Z" class="g6_1" />
<path d="M374,364l1,1c-1,0,-1,1,-1,1c-1,0,-1,0,-2,0c-1,0,-1,-1,-2,-1c0,-1,0,-2,0,-2c0,-1,1,-2,1,-2c0,0,1,-1,1,-1c1,0,1,0,2,0c0,1,1,1,1,1c0,1,0,1,0,2l-1,0c0,-1,0,-1,0,-1c0,-1,0,-1,-1,-1c0,0,-1,0,-1,0c0,1,-1,1,-1,2c0,0,0,1,0,1c0,1,1,1,1,1c1,0,1,0,1,0c0,0,1,0,1,-1Z" class="g6_1" />
<path d="M130,323l4,-12l8,2l0,2l-7,-2l-1,3l6,2l0,2l-7,-2l-1,4l7,2l0,1Z" class="g6_1" />
<path d="M140,326l1,0c0,1,0,1,0,1c0,0,1,1,1,1c1,0,1,0,1,0c0,0,1,0,1,-1l-1,0c0,0,0,-1,0,-1c-1,0,-1,0,-2,-1c0,-1,0,-1,0,-1c0,0,0,-1,0,-1c0,0,1,0,1,0l1,0c1,0,1,0,1,0c1,1,1,1,1,1c0,0,0,1,0,1l-1,0c0,0,0,-1,0,-1l-1,0c0,0,-1,0,-1,0c0,0,0,1,0,1l1,0c0,1,1,1,1,1c0,0,1,0,1,1c-1,1,-1,1,-1,1c0,0,0,1,-1,1c0,0,-1,0,-1,0c-1,-1,-1,-1,-2,-1c0,-1,0,-1,0,-2Z" class="g6_1" />
<path d="M165,329l1,1c-1,1,-1,1,-2,2c-1,0,-2,0,-3,0c-1,0,-2,-1,-2,-2c0,-1,-1,-2,0,-4c0,-1,1,-1,1,-2c1,0,1,-1,2,-1c1,0,1,0,2,0c1,0,2,1,2,1c1,1,1,2,1,3l-2,-1c0,0,0,-1,0,-1c0,0,-1,-1,-1,-1c-1,0,-2,0,-2,0c-1,1,-1,2,-2,3c0,1,0,2,0,2c1,1,1,1,2,2c0,0,1,0,1,0c1,-1,1,-1,2,-2Z" class="g6_1" />
<path d="M173,326l0,1l-5,-2c0,-1,0,-1,1,-1c0,0,1,-1,1,-1c1,0,2,-1,2,-1c1,0,1,-1,1,-1c0,0,0,-1,0,-1l-1,-1c0,0,-1,0,-1,1c0,0,-1,0,-1,1l-1,-1c1,-1,1,-1,2,-1c0,0,1,0,1,0c1,0,2,0,2,1c0,0,0,1,0,1c0,1,0,1,0,1c-1,0,-1,1,-1,1c-1,0,-1,0,-2,1c-1,0,-1,0,-1,0c0,1,-1,1,-1,1Z" class="g6_1" />
<path d="M176,332l1,-1l9,2l-1,2Z" class="g6_1" />
<path d="M193,336c-1,1,-1,2,-1,2c1,1,1,2,2,2c1,0,1,0,2,0c0,-1,1,-2,1,-3c1,-1,1,-2,0,-2c0,-1,0,-1,-1,-2c-1,0,-1,0,-2,1c-1,0,-1,1,-1,2m-2,4l-1,0l3,-12l2,1l-1,4c1,-1,1,-1,2,-1c1,0,1,1,2,1c0,0,0,1,1,1c0,1,0,1,0,2c0,0,0,1,0,2c-1,1,-1,2,-2,3c-1,0,-2,0,-3,0c-1,0,-2,-1,-2,-2Z" class="g6_1" />
<path d="M206,335l0,1l-5,-1c0,0,0,-1,0,-1c0,0,1,0,1,-1c0,0,1,0,1,0c1,-1,2,-1,2,-1c1,-1,1,-1,1,-1c0,-1,0,-1,0,-1c0,-1,0,-1,-1,-1c0,0,-1,0,-1,0c0,0,-1,1,-1,1l-1,0c1,-1,1,-2,2,-2c0,0,1,0,1,0c1,0,2,1,2,1c0,1,0,1,0,2l0,1c0,0,-1,0,-1,0c-1,1,-1,1,-2,1c-1,1,-1,1,-1,1c0,0,-1,0,-1,0Z" class="g6_1" />
<path d="M259,360l4,-12l8,2l0,2l-7,-2l-1,3l6,2l0,2l-7,-2l-1,4l8,2l-1,1Z" class="g6_1" />
<path d="M273,364l1,0c0,1,-1,1,-1,1c-1,1,-1,1,-2,1c0,-1,-1,-1,-1,-2c-1,0,-1,-1,0,-2c0,0,0,-1,0,-1c1,-1,1,-1,1,-1c1,0,1,0,2,0c0,0,1,0,1,1c0,0,1,1,0,1c0,0,0,-1,-1,-1c-1,0,-1,0,-2,0c0,0,0,1,0,1c-1,1,-1,2,0,2c0,0,0,1,0,1c1,0,1,0,1,0c1,0,1,-1,1,-1Z" class="g6_1" />
<path d="M292,364c-1,1,-1,2,-1,3c1,1,1,1,2,1c0,0,1,0,2,0c0,0,1,-1,1,-2c0,-1,0,-2,0,-3c0,-1,-1,-1,-1,-1c-1,0,-1,0,-2,0c-1,1,-1,1,-1,2m-2,5l-1,-1l3,-11l2,0l-1,4c0,0,1,-1,2,0c1,0,1,0,2,0c0,1,0,1,1,2c0,0,0,1,0,1c0,1,0,1,0,2c-1,1,-2,2,-2,3c-1,1,-2,1,-3,0c-1,0,-2,0,-2,-1Z" class="g6_1" />
<path d="M305,364l-1,1l-4,-2c0,-1,0,-1,1,-1c0,0,1,-1,1,-1c1,0,2,-1,2,-1c1,0,1,-1,1,-1c0,0,0,-1,0,-1c0,0,-1,-1,-1,-1c0,0,-1,0,-1,0c0,1,-1,1,-1,1l-1,0c1,-1,1,-1,1,-1c1,-1,2,-1,2,0c1,0,1,0,2,1c0,0,0,1,0,1c0,1,0,1,0,1c-1,0,-1,1,-1,1c-1,0,-1,0,-2,1c-1,0,-1,0,-1,0c-1,0,-1,1,-1,1Z" class="g6_1" />
<path d="M308,370l0,-1l9,2l0,1Z" class="g6_1" />
<path d="M328,375c0,0,-1,0,-2,0c-1,0,-1,0,-2,0c0,0,-1,0,-1,1l1,1l1,0c0,1,1,1,1,1c1,-1,1,-1,2,-1c0,0,0,-1,0,-2ZM328,378c-1,0,-2,1,-2,1c-1,0,-1,0,-2,0c-1,-1,-2,-1,-2,-2c0,0,0,-1,0,-2c0,0,0,-1,0,-1c1,0,1,0,1,0c1,-1,1,-1,2,-1l1,1c1,0,2,0,3,0c0,0,0,-1,0,-1c0,0,0,-1,0,-1c-1,0,-1,-1,-2,-1c0,0,-1,0,-1,0c-1,0,-1,1,-1,1l-2,-1c0,0,1,-1,1,-1c1,0,1,0,2,0c0,0,1,0,2,0c0,0,1,0,1,1c1,0,1,0,1,1l0,1l0,1l0,2c-1,1,-1,2,-1,3l0,1l-1,-1c-1,0,-1,0,0,-1Z" class="g6_1" />
<path d="M337,373l0,1l-5,-1c0,-1,0,-1,1,-1c0,0,0,-1,0,-1c1,0,1,0,2,-1c1,0,2,0,2,-1c0,0,1,0,1,-1l0,-1c-1,0,-1,0,-1,0c-1,0,-1,0,-1,0c-1,0,-1,0,-1,1l-1,-1c0,0,1,-1,1,-1c1,0,1,0,2,0c1,0,1,0,2,1c0,0,0,1,0,2c0,0,-1,0,-1,0c0,1,0,1,-1,1c0,0,-1,1,-1,1c-1,0,-1,1,-2,1Z" class="g6_1" />
</g>
<g clip-path="url(#c2_1)">
<path d="M175,284c-8,-2,-15,-1,-15,1l-13,43c0,3,5,6,13,9m81,-34c7,2,13,6,12,8l-12,44c-1,2,-8,3,-15,1m82,-34c-8,-2,-14,-1,-15,1l-12,43c-1,3,4,7,12,9m81,-33c8,2,13,6,13,8l-13,43c-1,3,-7,3,-15,1" class="g7_1" />
</g>
<g clip-path="url(#c3_1)">
<path d="M371,690l9,1l0,-2l-7,0l1,-6l6,0l0,-2l-6,0l0,-5l7,0l0,-1l-9,-1Z" class="g6_1" />
<path d="M388,683l13,2l0,-2l-13,-1ZM388,688l12,1l1,-1l-13,-1Z" class="g6_1" />
</g>
<g clip-path="url(#c4_1)">
<path d="M415,673c-1,0,-2,0,-3,1c0,0,-1,1,-1,3c0,1,0,2,1,3c0,1,1,1,2,1c1,0,2,0,3,-1c0,0,1,-1,1,-3c0,-1,0,-2,-1,-3c0,0,-1,-1,-2,-1m7,-1l0,2l-3,0c0,0,1,2,1,4c-1,2,-1,3,-2,4c-1,1,-3,1,-4,1c-1,0,-3,-1,-4,-2c0,-1,-1,-2,-1,-4c1,-2,1,-4,2,-4c1,-1,3,-2,4,-2c1,0,1,1,2,1Z" class="g6_1" />
</g>
<g clip-path="url(#c5_1)">
<path d="M408,686l12,1l0,-2l-12,-1Z" class="g6_1" />
<path d="M414,696l0,1l-4,0c0,1,0,2,1,3c0,0,1,1,2,1c1,0,2,-1,3,-3l1,1c0,1,0,2,-1,3c-1,0,-2,0,-4,0c-1,0,-2,0,-3,-1c-1,-2,-1,-3,-1,-5c0,-2,1,-3,2,-4c1,-1,2,-1,4,-1c1,0,2,1,2,1c1,1,1,2,2,3l-2,0c0,-2,-1,-2,-3,-2c0,-1,-1,0,-2,0c0,1,-1,2,-1,3Z" class="g6_1" />
</g>
<path d="M0,114l605,0l0,-59L0,55l0,59Z" class="g8_1" />
<g clip-path="url(#c3_1)">
<path d="M57,85l4,0l3,0l4,0l1,0l3,0L72,68L32,68l0,39l40,0L72,89l-4,0l0,9c0,3,-2,5,-5,5l-22,0c-3,0,-5,-2,-5,-5L36,76c0,-3,2,-5,5,-5l22,0c3,0,5,2,5,5l0,6l-4,0l0,-3c0,-3,-1,-4,-4,-4L43,75c-2,0,-4,1,-4,4l0,17c0,2,2,4,4,4l17,0c3,0,4,-2,4,-4l0,-7l-3,0l0,4c0,2,-1,3,-3,3L46,96c-2,0,-3,-1,-3,-3L43,81c0,-1,1,-3,3,-3l4,0l8,0l3,0l0,3l0,1l-5,0l-6,0l-2,0c-1,0,-1,1,-1,2l0,7c0,1,0,2,1,2l8,0c0,0,1,-1,1,-2l0,-2l-7,0l0,-4Z" class="g9_1" />
</g>
<path d="M73,104l2,0l0,1l-1,0l0,2l0,-2l-1,0Z" class="g9_1" />
<g clip-path="url(#c3_1)">
<path d="M78,107l0,-2l-1,2l-1,-2l0,2l0,-3l1,3l1,-3l0,3Z" class="g9_1" />
<path d="M96,86l8,0l0,9c-2,0,-5,1,-8,1C90,96,86,93,86,87C86,80,90,77,96,77c4,0,8,2,9,6l-5,0c0,-2,-2,-2,-4,-2c-4,0,-5,2,-5,5c0,4,2,6,6,6c1,0,2,0,3,0l0,-3l-4,0Z" class="g10_1" />
</g>
<path d="M107,78l15,0l0,3l-11,0l0,4l10,0l0,3l-10,0l0,4l11,0l0,3l-15,0Z" class="g10_1" />
<path d="M137,78l5,0l0,17l-5,0L128,83l0,12l-4,0l0,-17l5,0l8,12Z" class="g10_1" />
<path d="M144,78l15,0l0,3l-10,0l0,4l10,0l0,3l-10,0l0,4l10,0l0,3l-15,0Z" class="g10_1" />
<g clip-path="url(#c3_1)">
<path d="M161,78l12,0c4,0,5,3,5,5c0,2,-1,3,-3,4c2,0,3,3,3,5c0,0,0,2,0,3l-4,0c-1,0,-1,-1,-1,-3c0,-2,-1,-3,-2,-3l-5,0l0,6l-5,0ZM166,86l5,0c1,0,2,-1,2,-3c0,-1,-1,-2,-2,-2l-5,0Z" class="g10_1" />
</g>
<path d="M191,92l-7,0l-1,3l-5,0l7,-17l5,0l7,17l-4,0ZM188,82l-3,7l5,0Z" class="g10_1" />
<path d="M198,78l4,0l0,14l10,0l0,3l-14,0Z" class="g10_1" />
<g clip-path="url(#c3_1)">
<path d="M229,89c0,4,-3,7,-7,7c-6,0,-9,-4,-9,-9c0,-4,2,-10,9,-10c3,0,7,2,7,7l-1,0c-1,-4,-4,-5,-6,-5c-4,0,-7,2,-7,8c0,3,2,7,7,7c3,0,5,-2,6,-5Z" class="g10_1" />
</g>
<path d="M242,90l-8,0l-3,5l-1,0l7,-17l2,0l7,17l-2,0ZM238,80l-4,8l7,0Z" class="g10_1" />
<g clip-path="url(#c3_1)">
<path d="M247,78l9,0c3,0,5,1,5,5c0,1,-1,3,-3,4c2,0,3,2,3,5c0,1,0,3,0,3l-1,0c-1,0,-1,-1,-1,-3c0,-3,-1,-4,-4,-4l-6,0l0,7l-2,0ZM249,86l7,0c2,0,3,-1,3,-3c0,-3,-1,-4,-3,-4l-7,0Z" class="g10_1" />
<path d="M264,78l9,0c3,0,4,2,4,4c0,2,-1,4,-3,4c2,0,4,2,4,4c0,4,-3,5,-6,5l-8,0ZM265,85l7,0c2,0,3,0,3,-3c0,-2,-1,-3,-3,-3l-7,0ZM265,94l7,0c2,0,4,-1,4,-4c0,-2,-2,-3,-3,-3l-8,0Z" class="g10_1" />
</g>
<path d="M280,78l2,0l0,17l-2,0l0,-17Z" class="g10_1" />
<g clip-path="url(#c3_1)">
<path d="M286,78l7,0c5,0,7,3,7,9c0,5,-2,8,-7,8l-7,0ZM287,94l6,0c3,0,5,-2,5,-7c0,-5,-1,-8,-5,-8l-6,0Z" class="g10_1" />
</g>
<path d="M302,78l13,0l0,1l-11,0l0,6l11,0l0,2l-11,0l0,7l11,0l0,1l-13,0Z" class="g10_1" />
<g clip-path="url(#c3_1)">
<path d="M317,93c0,-2,2,-4,4,-4c1,0,3,2,3,4c0,2,-2,3,-3,3c-2,0,-4,-1,-4,-3m4,2c1,0,2,-1,2,-2c0,-2,-1,-3,-2,-3c-2,0,-3,1,-3,3c0,1,1,2,3,2m-1,0l-1,0l0,-4l2,0c1,0,1,0,1,1c0,0,0,1,-1,1l1,2l-2,-2ZM321,92c0,-1,0,-1,0,-1l-1,0l0,1Z" class="g10_1" />
</g>
<path d="M337,68l0,39" class="g11_1" />
</svg>