<?xml version="1.0" encoding="UTF-8" standalone="no"?>
<!DOCTYPE svg PUBLIC "-//W3C//DTD SVG 1.1//EN"
"http://www.w3.org/Graphics/SVG/1.1/DTD/svg11.dtd">
<svg version="1.1" xmlns="http://www.w3.org/2000/svg" xmlns:xlink="http://www.w3.org/1999/xlink">
<defs>
<clipPath id="c0_56"><path d="M200.5,877.5l0,-27l193,0l0,27Z" /></clipPath>
<clipPath id="c1_56"><path d="M0.5,935.5l0,-935l605,0l0,935Z" /></clipPath>
<style type="text/css"><![CDATA[
.g3_56{
}
.g1_56{
fill: #DC4244;
}
.g6_56{
fill: #5C5C5C;
}
.g5_56{
fill: #DB003C;
}
.g2_56{
fill: none;
stroke: #DC4244;
stroke-width: 1;
stroke-linecap: butt;
stroke-linejoin: miter;
}
.g7_56{
fill: #E7E7E7;
}
.g4_56{
fill: none;
stroke: #000000;
stroke-width: 1;
stroke-linecap: butt;
stroke-linejoin: miter;
}
]]></style>
</defs>
<g clip-path="url(#c0_56)">
<path d="M217,862l2,0l2,0l3,0l2,0l0,-12l-26,0l0,27l26,0l0,-12l-2,0l0,6c0,2,-2,3,-3,3l-15,0c-2,0,-4,-1,-4,-3l0,-15c0,-2,2,-3,4,-3l15,0c1,0,3,1,3,3l0,4l-3,0l0,-2c0,-2,-1,-3,-2,-3l-12,0c-1,0,-2,1,-2,3l0,11c0,2,1,3,2,3l12,0c1,0,2,-1,2,-3l0,-4l-2,0l0,3c0,1,-1,1,-2,1l-8,0c-1,0,-2,0,-2,-1l0,-9c0,-1,1,-2,2,-2l3,0l5,0l2,0l0,2l0,1l-3,0l-4,0l-1,0c-1,0,-1,0,-1,1l0,5c0,1,0,1,1,1l5,0c0,0,1,0,1,-1l0,-1l-5,0l0,-3l5,0Z" class="g1_56" />
<path d="M227.5,877.5l0,-2" class="g2_56" />
<path d="M231,877l0,-1c0,-1,0,-1,0,-1l-1,2l-1,-2l0,1l0,1l0,-2l1,1l0,-1l1,0l0,2Z" class="g1_56" />
<path d="M242,862l6,0l0,7c-2,0,-3,0,-5,0c-4,0,-7,-1,-7,-6c0,-4,2,-6,7,-6c2,0,5,1,5,4l-3,0c0,-2,-1,-2,-2,-2c-3,0,-4,2,-4,4c0,2,1,4,4,4c1,0,2,0,2,0l0,-2l-3,0l0,-3Z" class="g3_56" />
<path d="M250,857l10,0l0,2l-7,0l0,3l6,0l0,2l-6,0l0,3l7,0l0,2l-10,0Z" class="g3_56" />
<path d="M270,857l3,0l0,12l-3,0l-6,-8l0,8l-3,0l0,-12l4,0l5,8Z" class="g3_56" />
<path d="M275,857l10,0l0,2l-7,0l0,3l6,0l0,2l-6,0l0,3l7,0l0,2l-10,0Z" class="g3_56" />
<path d="M286,857l8,0c3,0,3,2,3,3c0,2,0,3,-1,3c1,0,1,2,1,3c0,1,0,2,1,3l-4,0c0,-1,0,-1,0,-2c0,-2,-1,-2,-1,-2l-4,0l0,4l-3,0ZM289,862l4,0c0,0,1,0,1,-1c0,-1,-1,-2,-1,-2l-4,0l0,3Z" class="g3_56" />
<path d="M306,866l-5,0l-1,3l-3,0l5,-12l3,0l5,12l-3,0ZM304,860l-2,4l3,0Z" class="g3_56" />
<path d="M311,857l3,0l0,10l6,0l0,2l-9,0Z" class="g3_56" />
<path d="M332,864c-1,3,-3,5,-6,5c-3,0,-5,-2,-5,-6c0,-3,1,-6,5,-6c3,0,5,1,5,4l-1,0c0,-2,-2,-3,-4,-3c-2,0,-4,2,-4,5c0,3,1,5,4,5c3,0,4,-1,4,-4l2,0Z" class="g3_56" />
<path d="M340,865l-6,0l-1,4l-1,0l5,-12l1,0l5,12l-2,0ZM337,858l-2,6l4,0Z" class="g3_56" />
<path d="M343,857l6,0c2,0,4,1,4,3c0,2,-1,3,-2,3c1,0,1,1,1,3c1,1,1,3,1,3l-1,0c-1,0,-1,-1,-1,-3c0,-2,0,-2,-2,-2l-4,0l0,5l-2,0ZM345,863l4,0c1,0,2,-1,2,-3c0,-1,-1,-2,-2,-2l-4,0l0,5Z" class="g3_56" />
<path d="M354,857l6,0c2,0,3,1,3,3c0,1,0,2,-1,3c1,0,2,1,2,2c0,3,-2,4,-4,4l-6,0ZM355,862l5,0c1,0,2,0,2,-2c0,-1,-1,-2,-2,-2l-5,0ZM355,868l5,0c2,0,3,-1,3,-3c0,-1,-1,-2,-3,-2l-5,0l0,5Z" class="g3_56" />
<path d="M366.5,869.5l0,-12" class="g4_56" />
<path d="M369,857l5,0c3,0,5,2,5,6c0,3,-2,6,-5,6l-5,0ZM370,868l4,0c2,0,4,-1,4,-5c0,-3,-1,-5,-4,-5l-4,0l0,10Z" class="g3_56" />
<path d="M380,857l9,0l0,1l-8,0l0,4l7,0l0,1l-7,0l0,5l8,0l0,1l-9,0Z" class="g3_56" />
<path d="M390,868c0,-1,1,-1,1,-1c1,0,2,0,2,1c0,1,-1,1,-2,1c0,0,-1,0,-1,-1m1,1c1,0,1,0,1,-1c0,-1,0,-1,-1,-1c0,0,-1,0,-1,1c0,1,1,1,1,1m0,0l0,-2c1,0,1,0,1,1l0,1l-1,-1ZM391,868c0,0,1,0,1,0c0,0,-1,-1,-1,-1l0,1Z" class="g3_56" />
</g>
<g clip-path="url(#c1_56)">
<path d="M0,935l605,0l0,-48L0,887l0,48Z" class="g3_56" />
<path d="M0,41l605,0L605,0L0,0L0,41Z" class="g5_56" />
</g>
<path d="M117,118l140,0l0,28l-140,0l0,-28ZM257,118l70,0l0,45l-70,0l0,-45ZM327,118l69,0l0,45l-69,0l0,-45ZM396,118l76,0l0,45l-76,0l0,-45ZM472,118l91,0l0,45l-91,0l0,-45ZM117,146l32,0l0,17l-32,0l0,-17ZM149,146l28,0l0,17l-28,0l0,-17ZM177,146l24,0l0,17l-24,0l0,-17ZM201,146l26,0l0,17l-26,0l0,-17ZM227,146l30,0l0,17l-30,0l0,-17Z" class="g6_56" />
<path d="M38,163l525,0l0,15L38,178l0,-15ZM38,328l525,0l0,15L38,343l0,-15ZM38,522l525,0l0,15L38,537l0,-15Z" class="g7_56" />
<path d="M38.5,163.5l79,0" class="g4_56" />
<path d="M38.5,178.5l0,-14" class="g4_56" />
<path d="M563.5,178.5l0,-14" class="g4_56" />
<path d="M38.5,178.5l79,0" class="g4_56" />
<path d="M38.5,193.5l0,-15" class="g4_56" />
<path d="M117.5,178.5l32,0" class="g4_56" />
<path d="M117.5,193.5l0,-15" class="g4_56" />
<path d="M149.5,178.5l28,0" class="g4_56" />
<path d="M149.5,193.5l0,-15" class="g4_56" />
<path d="M177.5,178.5l24,0" class="g4_56" />
<path d="M177.5,193.5l0,-15" class="g4_56" />
<path d="M201.5,178.5l26,0" class="g4_56" />
<path d="M201.5,193.5l0,-15" class="g4_56" />
<path d="M227.5,178.5l30,0" class="g4_56" />
<path d="M227.5,193.5l0,-15" class="g4_56" />
<path d="M257.5,178.5l70,0" class="g4_56" />
<path d="M257.5,193.5l0,-15" class="g4_56" />
<path d="M327.5,178.5l69,0" class="g4_56" />
<path d="M327.5,193.5l0,-15" class="g4_56" />
<path d="M396.5,178.5l76,0" class="g4_56" />
<path d="M396.5,193.5l0,-15" class="g4_56" />
<path d="M472.5,178.5l91,0" class="g4_56" />
<path d="M472.5,193.5l0,-15" class="g4_56" />
<path d="M563.5,193.5l0,-15" class="g4_56" />
<path d="M38.5,193.5l79,0" class="g4_56" />
<path d="M38.5,208.5l0,-15" class="g4_56" />
<path d="M117.5,193.5l32,0" class="g4_56" />
<path d="M117.5,208.5l0,-15" class="g4_56" />
<path d="M149.5,193.5l28,0" class="g4_56" />
<path d="M149.5,208.5l0,-15" class="g4_56" />
<path d="M177.5,193.5l24,0" class="g4_56" />
<path d="M177.5,208.5l0,-15" class="g4_56" />
<path d="M201.5,193.5l26,0" class="g4_56" />
<path d="M201.5,208.5l0,-15" class="g4_56" />
<path d="M227.5,193.5l30,0" class="g4_56" />
<path d="M227.5,208.5l0,-15" class="g4_56" />
<path d="M257.5,193.5l70,0" class="g4_56" />
<path d="M257.5,208.5l0,-15" class="g4_56" />
<path d="M327.5,193.5l69,0" class="g4_56" />
<path d="M327.5,208.5l0,-15" class="g4_56" />
<path d="M396.5,193.5l76,0" class="g4_56" />
<path d="M396.5,208.5l0,-15" class="g4_56" />
<path d="M472.5,193.5l91,0" class="g4_56" />
<path d="M472.5,208.5l0,-15" class="g4_56" />
<path d="M563.5,208.5l0,-15" class="g4_56" />
<path d="M38.5,208.5l79,0" class="g4_56" />
<path d="M38.5,223.5l0,-15" class="g4_56" />
<path d="M117.5,208.5l32,0" class="g4_56" />
<path d="M117.5,223.5l0,-15" class="g4_56" />
<path d="M149.5,208.5l28,0" class="g4_56" />
<path d="M149.5,223.5l0,-15" class="g4_56" />
<path d="M177.5,208.5l24,0" class="g4_56" />
<path d="M177.5,223.5l0,-15" class="g4_56" />
<path d="M201.5,208.5l26,0" class="g4_56" />
<path d="M201.5,223.5l0,-15" class="g4_56" />
<path d="M227.5,208.5l30,0" class="g4_56" />
<path d="M227.5,223.5l0,-15" class="g4_56" />
<path d="M257.5,208.5l70,0" class="g4_56" />
<path d="M257.5,223.5l0,-15" class="g4_56" />
<path d="M327.5,208.5l69,0" class="g4_56" />
<path d="M327.5,223.5l0,-15" class="g4_56" />
<path d="M396.5,208.5l76,0" class="g4_56" />
<path d="M396.5,223.5l0,-15" class="g4_56" />
<path d="M472.5,208.5l91,0" class="g4_56" />
<path d="M472.5,223.5l0,-15" class="g4_56" />
<path d="M563.5,223.5l0,-15" class="g4_56" />
<path d="M38.5,223.5l79,0" class="g4_56" />
<path d="M38.5,238.5l0,-15" class="g4_56" />
<path d="M117.5,223.5l32,0" class="g4_56" />
<path d="M117.5,238.5l0,-15" class="g4_56" />
<path d="M149.5,223.5l28,0" class="g4_56" />
<path d="M149.5,238.5l0,-15" class="g4_56" />
<path d="M177.5,223.5l24,0" class="g4_56" />
<path d="M177.5,238.5l0,-15" class="g4_56" />
<path d="M201.5,223.5l26,0" class="g4_56" />
<path d="M201.5,238.5l0,-15" class="g4_56" />
<path d="M227.5,223.5l30,0" class="g4_56" />
<path d="M227.5,238.5l0,-15" class="g4_56" />
<path d="M257.5,223.5l70,0" class="g4_56" />
<path d="M257.5,238.5l0,-15" class="g4_56" />
<path d="M327.5,223.5l69,0" class="g4_56" />
<path d="M327.5,238.5l0,-15" class="g4_56" />
<path d="M396.5,223.5l76,0" class="g4_56" />
<path d="M396.5,238.5l0,-15" class="g4_56" />
<path d="M472.5,223.5l91,0" class="g4_56" />
<path d="M472.5,238.5l0,-15" class="g4_56" />
<path d="M563.5,238.5l0,-15" class="g4_56" />
<path d="M38.5,238.5l79,0" class="g4_56" />
<path d="M38.5,254.5l0,-16" class="g4_56" />
<path d="M117.5,238.5l32,0" class="g4_56" />
<path d="M117.5,254.5l0,-16" class="g4_56" />
<path d="M149.5,238.5l28,0" class="g4_56" />
<path d="M149.5,254.5l0,-16" class="g4_56" />
<path d="M177.5,238.5l24,0" class="g4_56" />
<path d="M177.5,254.5l0,-16" class="g4_56" />
<path d="M201.5,238.5l26,0" class="g4_56" />
<path d="M201.5,254.5l0,-16" class="g4_56" />
<path d="M227.5,238.5l30,0" class="g4_56" />
<path d="M227.5,254.5l0,-16" class="g4_56" />
<path d="M257.5,238.5l70,0" class="g4_56" />
<path d="M257.5,254.5l0,-16" class="g4_56" />
<path d="M327.5,238.5l69,0" class="g4_56" />
<path d="M327.5,254.5l0,-16" class="g4_56" />
<path d="M396.5,238.5l76,0" class="g4_56" />
<path d="M396.5,254.5l0,-16" class="g4_56" />
<path d="M472.5,238.5l91,0" class="g4_56" />
<path d="M472.5,254.5l0,-16" class="g4_56" />
<path d="M563.5,254.5l0,-16" class="g4_56" />
<path d="M38.5,254.5l79,0" class="g4_56" />
<path d="M38.5,269.5l0,-15" class="g4_56" />
<path d="M117.5,254.5l32,0" class="g4_56" />
<path d="M117.5,269.5l0,-15" class="g4_56" />
<path d="M149.5,254.5l28,0" class="g4_56" />
<path d="M149.5,269.5l0,-15" class="g4_56" />
<path d="M177.5,254.5l24,0" class="g4_56" />
<path d="M177.5,269.5l0,-15" class="g4_56" />
<path d="M201.5,254.5l26,0" class="g4_56" />
<path d="M201.5,269.5l0,-15" class="g4_56" />
<path d="M227.5,254.5l30,0" class="g4_56" />
<path d="M227.5,269.5l0,-15" class="g4_56" />
<path d="M257.5,254.5l70,0" class="g4_56" />
<path d="M257.5,269.5l0,-15" class="g4_56" />
<path d="M327.5,254.5l69,0" class="g4_56" />
<path d="M327.5,269.5l0,-15" class="g4_56" />
<path d="M396.5,254.5l76,0" class="g4_56" />
<path d="M396.5,269.5l0,-15" class="g4_56" />
<path d="M472.5,254.5l91,0" class="g4_56" />
<path d="M472.5,269.5l0,-15" class="g4_56" />
<path d="M563.5,269.5l0,-15" class="g4_56" />
<path d="M38.5,269.5l79,0" class="g4_56" />
<path d="M38.5,283.5l0,-14" class="g4_56" />
<path d="M117.5,269.5l32,0" class="g4_56" />
<path d="M117.5,283.5l0,-14" class="g4_56" />
<path d="M149.5,269.5l28,0" class="g4_56" />
<path d="M149.5,283.5l0,-14" class="g4_56" />
<path d="M177.5,269.5l24,0" class="g4_56" />
<path d="M177.5,283.5l0,-14" class="g4_56" />
<path d="M201.5,269.5l26,0" class="g4_56" />
<path d="M201.5,283.5l0,-14" class="g4_56" />
<path d="M227.5,269.5l30,0" class="g4_56" />
<path d="M227.5,283.5l0,-14" class="g4_56" />
<path d="M257.5,269.5l70,0" class="g4_56" />
<path d="M257.5,283.5l0,-14" class="g4_56" />
<path d="M327.5,269.5l69,0" class="g4_56" />
<path d="M327.5,283.5l0,-14" class="g4_56" />
<path d="M396.5,269.5l76,0" class="g4_56" />
<path d="M396.5,283.5l0,-14" class="g4_56" />
<path d="M472.5,269.5l91,0" class="g4_56" />
<path d="M472.5,283.5l0,-14" class="g4_56" />
<path d="M563.5,283.5l0,-14" class="g4_56" />
<path d="M38.5,284.5l79,0" class="g4_56" />
<path d="M38.5,298.5l0,-14" class="g4_56" />
<path d="M117.5,284.5l32,0" class="g4_56" />
<path d="M117.5,298.5l0,-14" class="g4_56" />
<path d="M149.5,284.5l28,0" class="g4_56" />
<path d="M149.5,298.5l0,-14" class="g4_56" />
<path d="M177.5,284.5l24,0" class="g4_56" />
<path d="M177.5,298.5l0,-14" class="g4_56" />
<path d="M201.5,284.5l26,0" class="g4_56" />
<path d="M201.5,298.5l0,-14" class="g4_56" />
<path d="M227.5,284.5l30,0" class="g4_56" />
<path d="M227.5,298.5l0,-14" class="g4_56" />
<path d="M257.5,284.5l70,0" class="g4_56" />
<path d="M257.5,298.5l0,-14" class="g4_56" />
<path d="M327.5,284.5l69,0" class="g4_56" />
<path d="M327.5,298.5l0,-14" class="g4_56" />
<path d="M396.5,284.5l76,0" class="g4_56" />
<path d="M396.5,298.5l0,-14" class="g4_56" />
<path d="M472.5,284.5l91,0" class="g4_56" />
<path d="M472.5,298.5l0,-14" class="g4_56" />
<path d="M563.5,298.5l0,-14" class="g4_56" />
<path d="M38.5,299.5l79,0" class="g4_56" />
<path d="M38.5,313.5l0,-14" class="g4_56" />
<path d="M117.5,299.5l32,0" class="g4_56" />
<path d="M117.5,313.5l0,-14" class="g4_56" />
<path d="M149.5,299.5l28,0" class="g4_56" />
<path d="M149.5,313.5l0,-14" class="g4_56" />
<path d="M177.5,299.5l24,0" class="g4_56" />
<path d="M177.5,313.5l0,-14" class="g4_56" />
<path d="M201.5,299.5l26,0" class="g4_56" />
<path d="M201.5,313.5l0,-14" class="g4_56" />
<path d="M227.5,299.5l30,0" class="g4_56" />
<path d="M227.5,313.5l0,-14" class="g4_56" />
<path d="M257.5,299.5l70,0" class="g4_56" />
<path d="M257.5,313.5l0,-14" class="g4_56" />
<path d="M327.5,299.5l69,0" class="g4_56" />
<path d="M327.5,313.5l0,-14" class="g4_56" />
<path d="M396.5,299.5l76,0" class="g4_56" />
<path d="M396.5,313.5l0,-14" class="g4_56" />
<path d="M472.5,299.5l91,0" class="g4_56" />
<path d="M472.5,313.5l0,-14" class="g4_56" />
<path d="M563.5,313.5l0,-14" class="g4_56" />
<path d="M38.5,314.5l79,0" class="g4_56" />
<path d="M38.5,328.5l0,-14" class="g4_56" />
<path d="M117.5,314.5l32,0" class="g4_56" />
<path d="M117.5,328.5l0,-14" class="g4_56" />
<path d="M149.5,314.5l28,0" class="g4_56" />
<path d="M149.5,328.5l0,-14" class="g4_56" />
<path d="M177.5,314.5l24,0" class="g4_56" />
<path d="M177.5,328.5l0,-14" class="g4_56" />
<path d="M201.5,314.5l26,0" class="g4_56" />
<path d="M201.5,328.5l0,-14" class="g4_56" />
<path d="M227.5,314.5l30,0" class="g4_56" />
<path d="M227.5,328.5l0,-14" class="g4_56" />
<path d="M257.5,314.5l70,0" class="g4_56" />
<path d="M257.5,328.5l0,-14" class="g4_56" />
<path d="M327.5,314.5l69,0" class="g4_56" />
<path d="M327.5,328.5l0,-14" class="g4_56" />
<path d="M396.5,314.5l76,0" class="g4_56" />
<path d="M396.5,328.5l0,-14" class="g4_56" />
<path d="M472.5,314.5l91,0" class="g4_56" />
<path d="M472.5,328.5l0,-14" class="g4_56" />
<path d="M563.5,328.5l0,-14" class="g4_56" />
<path d="M38.5,328.5l79,0" class="g4_56" />
<path d="M38.5,343.5l0,-14" class="g4_56" />
<path d="M117.5,328.5l32,0" class="g4_56" />
<path d="M149.5,328.5l28,0" class="g4_56" />
<path d="M177.5,328.5l24,0" class="g4_56" />
<path d="M201.5,328.5l26,0" class="g4_56" />
<path d="M227.5,328.5l30,0" class="g4_56" />
<path d="M257.5,328.5l70,0" class="g4_56" />
<path d="M327.5,328.5l69,0" class="g4_56" />
<path d="M396.5,328.5l76,0" class="g4_56" />
<path d="M472.5,328.5l91,0" class="g4_56" />
<path d="M563.5,343.5l0,-14" class="g4_56" />
<path d="M38.5,343.5l79,0" class="g4_56" />
<path d="M38.5,358.5l0,-14" class="g4_56" />
<path d="M117.5,343.5l32,0" class="g4_56" />
<path d="M117.5,358.5l0,-14" class="g4_56" />
<path d="M149.5,343.5l28,0" class="g4_56" />
<path d="M149.5,358.5l0,-14" class="g4_56" />
<path d="M177.5,343.5l24,0" class="g4_56" />
<path d="M177.5,358.5l0,-14" class="g4_56" />
<path d="M201.5,343.5l26,0" class="g4_56" />
<path d="M201.5,358.5l0,-14" class="g4_56" />
<path d="M227.5,343.5l30,0" class="g4_56" />
<path d="M227.5,358.5l0,-14" class="g4_56" />
<path d="M257.5,343.5l70,0" class="g4_56" />
<path d="M257.5,358.5l0,-14" class="g4_56" />
<path d="M327.5,343.5l69,0" class="g4_56" />
<path d="M327.5,358.5l0,-14" class="g4_56" />
<path d="M396.5,343.5l76,0" class="g4_56" />
<path d="M396.5,358.5l0,-14" class="g4_56" />
<path d="M472.5,343.5l91,0" class="g4_56" />
<path d="M472.5,358.5l0,-14" class="g4_56" />
<path d="M563.5,358.5l0,-14" class="g4_56" />
<path d="M38.5,358.5l79,0" class="g4_56" />
<path d="M38.5,373.5l0,-14" class="g4_56" />
<path d="M117.5,358.5l32,0" class="g4_56" />
<path d="M117.5,373.5l0,-14" class="g4_56" />
<path d="M149.5,358.5l28,0" class="g4_56" />
<path d="M149.5,373.5l0,-14" class="g4_56" />
<path d="M177.5,358.5l24,0" class="g4_56" />
<path d="M177.5,373.5l0,-14" class="g4_56" />
<path d="M201.5,358.5l26,0" class="g4_56" />
<path d="M201.5,373.5l0,-14" class="g4_56" />
<path d="M227.5,358.5l30,0" class="g4_56" />
<path d="M227.5,373.5l0,-14" class="g4_56" />
<path d="M257.5,358.5l70,0" class="g4_56" />
<path d="M257.5,373.5l0,-14" class="g4_56" />
<path d="M327.5,358.5l69,0" class="g4_56" />
<path d="M327.5,373.5l0,-14" class="g4_56" />
<path d="M396.5,358.5l76,0" class="g4_56" />
<path d="M396.5,373.5l0,-14" class="g4_56" />
<path d="M472.5,358.5l91,0" class="g4_56" />
<path d="M472.5,373.5l0,-14" class="g4_56" />
<path d="M563.5,373.5l0,-14" class="g4_56" />
<path d="M38.5,373.5l79,0" class="g4_56" />
<path d="M38.5,388.5l0,-15" class="g4_56" />
<path d="M117.5,373.5l32,0" class="g4_56" />
<path d="M117.5,388.5l0,-15" class="g4_56" />
<path d="M149.5,373.5l28,0" class="g4_56" />
<path d="M149.5,388.5l0,-15" class="g4_56" />
<path d="M177.5,373.5l24,0" class="g4_56" />
<path d="M177.5,388.5l0,-15" class="g4_56" />
<path d="M201.5,373.5l26,0" class="g4_56" />
<path d="M201.5,388.5l0,-15" class="g4_56" />
<path d="M227.5,373.5l30,0" class="g4_56" />
<path d="M227.5,388.5l0,-15" class="g4_56" />
<path d="M257.5,373.5l70,0" class="g4_56" />
<path d="M257.5,388.5l0,-15" class="g4_56" />
<path d="M327.5,373.5l69,0" class="g4_56" />
<path d="M327.5,388.5l0,-15" class="g4_56" />
<path d="M396.5,373.5l76,0" class="g4_56" />
<path d="M396.5,388.5l0,-15" class="g4_56" />
<path d="M472.5,373.5l91,0" class="g4_56" />
<path d="M472.5,388.5l0,-15" class="g4_56" />
<path d="M563.5,388.5l0,-15" class="g4_56" />
<path d="M38.5,388.5l79,0" class="g4_56" />
<path d="M38.5,403.5l0,-15" class="g4_56" />
<path d="M117.5,388.5l32,0" class="g4_56" />
<path d="M117.5,403.5l0,-15" class="g4_56" />
<path d="M149.5,388.5l28,0" class="g4_56" />
<path d="M149.5,403.5l0,-15" class="g4_56" />
<path d="M177.5,388.5l24,0" class="g4_56" />
<path d="M177.5,403.5l0,-15" class="g4_56" />
<path d="M201.5,388.5l26,0" class="g4_56" />
<path d="M201.5,403.5l0,-15" class="g4_56" />
<path d="M227.5,388.5l30,0" class="g4_56" />
<path d="M227.5,403.5l0,-15" class="g4_56" />
<path d="M257.5,388.5l70,0" class="g4_56" />
<path d="M257.5,403.5l0,-15" class="g4_56" />
<path d="M327.5,388.5l69,0" class="g4_56" />
<path d="M327.5,403.5l0,-15" class="g4_56" />
<path d="M396.5,388.5l76,0" class="g4_56" />
<path d="M396.5,403.5l0,-15" class="g4_56" />
<path d="M472.5,388.5l91,0" class="g4_56" />
<path d="M472.5,403.5l0,-15" class="g4_56" />
<path d="M563.5,403.5l0,-15" class="g4_56" />
<path d="M38.5,403.5l79,0" class="g4_56" />
<path d="M38.5,418.5l0,-15" class="g4_56" />
<path d="M117.5,403.5l32,0" class="g4_56" />
<path d="M117.5,418.5l0,-15" class="g4_56" />
<path d="M149.5,403.5l28,0" class="g4_56" />
<path d="M149.5,418.5l0,-15" class="g4_56" />
<path d="M177.5,403.5l24,0" class="g4_56" />
<path d="M177.5,418.5l0,-15" class="g4_56" />
<path d="M201.5,403.5l26,0" class="g4_56" />
<path d="M201.5,418.5l0,-15" class="g4_56" />
<path d="M227.5,403.5l30,0" class="g4_56" />
<path d="M227.5,418.5l0,-15" class="g4_56" />
<path d="M257.5,403.5l70,0" class="g4_56" />
<path d="M257.5,418.5l0,-15" class="g4_56" />
<path d="M327.5,403.5l69,0" class="g4_56" />
<path d="M327.5,418.5l0,-15" class="g4_56" />
<path d="M396.5,403.5l76,0" class="g4_56" />
<path d="M396.5,418.5l0,-15" class="g4_56" />
<path d="M472.5,403.5l91,0" class="g4_56" />
<path d="M472.5,418.5l0,-15" class="g4_56" />
<path d="M563.5,418.5l0,-15" class="g4_56" />
<path d="M38.5,418.5l79,0" class="g4_56" />
<path d="M38.5,433.5l0,-15" class="g4_56" />
<path d="M117.5,418.5l32,0" class="g4_56" />
<path d="M117.5,433.5l0,-15" class="g4_56" />
<path d="M149.5,418.5l28,0" class="g4_56" />
<path d="M149.5,433.5l0,-15" class="g4_56" />
<path d="M177.5,418.5l24,0" class="g4_56" />
<path d="M177.5,433.5l0,-15" class="g4_56" />
<path d="M201.5,418.5l26,0" class="g4_56" />
<path d="M201.5,433.5l0,-15" class="g4_56" />
<path d="M227.5,418.5l30,0" class="g4_56" />
<path d="M227.5,433.5l0,-15" class="g4_56" />
<path d="M257.5,418.5l70,0" class="g4_56" />
<path d="M257.5,433.5l0,-15" class="g4_56" />
<path d="M327.5,418.5l69,0" class="g4_56" />
<path d="M327.5,433.5l0,-15" class="g4_56" />
<path d="M396.5,418.5l76,0" class="g4_56" />
<path d="M396.5,433.5l0,-15" class="g4_56" />
<path d="M472.5,418.5l91,0" class="g4_56" />
<path d="M472.5,433.5l0,-15" class="g4_56" />
<path d="M563.5,433.5l0,-15" class="g4_56" />
<path d="M38.5,433.5l79,0" class="g4_56" />
<path d="M38.5,448.5l0,-15" class="g4_56" />
<path d="M117.5,433.5l32,0" class="g4_56" />
<path d="M117.5,448.5l0,-15" class="g4_56" />
<path d="M149.5,433.5l28,0" class="g4_56" />
<path d="M149.5,448.5l0,-15" class="g4_56" />
<path d="M177.5,433.5l24,0" class="g4_56" />
<path d="M177.5,448.5l0,-15" class="g4_56" />
<path d="M201.5,433.5l26,0" class="g4_56" />
<path d="M201.5,448.5l0,-15" class="g4_56" />
<path d="M227.5,433.5l30,0" class="g4_56" />
<path d="M227.5,448.5l0,-15" class="g4_56" />
<path d="M257.5,433.5l70,0" class="g4_56" />
<path d="M257.5,448.5l0,-15" class="g4_56" />
<path d="M327.5,433.5l69,0" class="g4_56" />
<path d="M327.5,448.5l0,-15" class="g4_56" />
<path d="M396.5,433.5l76,0" class="g4_56" />
<path d="M396.5,448.5l0,-15" class="g4_56" />
<path d="M472.5,433.5l91,0" class="g4_56" />
<path d="M472.5,448.5l0,-15" class="g4_56" />
<path d="M563.5,448.5l0,-15" class="g4_56" />
<path d="M38.5,448.5l79,0" class="g4_56" />
<path d="M38.5,462.5l0,-14" class="g4_56" />
<path d="M117.5,448.5l32,0" class="g4_56" />
<path d="M117.5,462.5l0,-14" class="g4_56" />
<path d="M149.5,448.5l28,0" class="g4_56" />
<path d="M149.5,462.5l0,-14" class="g4_56" />
<path d="M177.5,448.5l24,0" class="g4_56" />
<path d="M177.5,462.5l0,-14" class="g4_56" />
<path d="M201.5,448.5l26,0" class="g4_56" />
<path d="M201.5,462.5l0,-14" class="g4_56" />
<path d="M227.5,448.5l30,0" class="g4_56" />
<path d="M227.5,462.5l0,-14" class="g4_56" />
<path d="M257.5,448.5l70,0" class="g4_56" />
<path d="M257.5,462.5l0,-14" class="g4_56" />
<path d="M327.5,448.5l69,0" class="g4_56" />
<path d="M327.5,462.5l0,-14" class="g4_56" />
<path d="M396.5,448.5l76,0" class="g4_56" />
<path d="M396.5,462.5l0,-14" class="g4_56" />
<path d="M472.5,448.5l91,0" class="g4_56" />
<path d="M472.5,462.5l0,-14" class="g4_56" />
<path d="M563.5,462.5l0,-14" class="g4_56" />
<path d="M38.5,463.5l79,0" class="g4_56" />
<path d="M38.5,477.5l0,-14" class="g4_56" />
<path d="M117.5,463.5l32,0" class="g4_56" />
<path d="M117.5,477.5l0,-14" class="g4_56" />
<path d="M149.5,463.5l28,0" class="g4_56" />
<path d="M149.5,477.5l0,-14" class="g4_56" />
<path d="M177.5,463.5l24,0" class="g4_56" />
<path d="M177.5,477.5l0,-14" class="g4_56" />
<path d="M201.5,463.5l26,0" class="g4_56" />
<path d="M201.5,477.5l0,-14" class="g4_56" />
<path d="M227.5,463.5l30,0" class="g4_56" />
<path d="M227.5,477.5l0,-14" class="g4_56" />
<path d="M257.5,463.5l70,0" class="g4_56" />
<path d="M257.5,477.5l0,-14" class="g4_56" />
<path d="M327.5,463.5l69,0" class="g4_56" />
<path d="M327.5,477.5l0,-14" class="g4_56" />
<path d="M396.5,463.5l76,0" class="g4_56" />
<path d="M396.5,477.5l0,-14" class="g4_56" />
<path d="M472.5,463.5l91,0" class="g4_56" />
<path d="M472.5,477.5l0,-14" class="g4_56" />
<path d="M563.5,477.5l0,-14" class="g4_56" />
<path d="M38.5,478.5l79,0" class="g4_56" />
<path d="M38.5,492.5l0,-14" class="g4_56" />
<path d="M117.5,478.5l32,0" class="g4_56" />
<path d="M117.5,492.5l0,-14" class="g4_56" />
<path d="M149.5,478.5l28,0" class="g4_56" />
<path d="M149.5,492.5l0,-14" class="g4_56" />
<path d="M177.5,478.5l24,0" class="g4_56" />
<path d="M177.5,492.5l0,-14" class="g4_56" />
<path d="M201.5,478.5l26,0" class="g4_56" />
<path d="M201.5,492.5l0,-14" class="g4_56" />
<path d="M227.5,478.5l30,0" class="g4_56" />
<path d="M227.5,492.5l0,-14" class="g4_56" />
<path d="M257.5,478.5l70,0" class="g4_56" />
<path d="M257.5,492.5l0,-14" class="g4_56" />
<path d="M327.5,478.5l69,0" class="g4_56" />
<path d="M327.5,492.5l0,-14" class="g4_56" />
<path d="M396.5,478.5l76,0" class="g4_56" />
<path d="M396.5,492.5l0,-14" class="g4_56" />
<path d="M472.5,478.5l91,0" class="g4_56" />
<path d="M472.5,492.5l0,-14" class="g4_56" />
<path d="M563.5,492.5l0,-14" class="g4_56" />
<path d="M38.5,493.5l79,0" class="g4_56" />
<path d="M38.5,507.5l0,-14" class="g4_56" />
<path d="M117.5,493.5l32,0" class="g4_56" />
<path d="M117.5,507.5l0,-14" class="g4_56" />
<path d="M149.5,493.5l28,0" class="g4_56" />
<path d="M149.5,507.5l0,-14" class="g4_56" />
<path d="M177.5,493.5l24,0" class="g4_56" />
<path d="M177.5,507.5l0,-14" class="g4_56" />
<path d="M201.5,493.5l26,0" class="g4_56" />
<path d="M201.5,507.5l0,-14" class="g4_56" />
<path d="M227.5,493.5l30,0" class="g4_56" />
<path d="M227.5,507.5l0,-14" class="g4_56" />
<path d="M257.5,493.5l70,0" class="g4_56" />
<path d="M257.5,507.5l0,-14" class="g4_56" />
<path d="M327.5,493.5l69,0" class="g4_56" />
<path d="M327.5,507.5l0,-14" class="g4_56" />
<path d="M396.5,493.5l76,0" class="g4_56" />
<path d="M396.5,507.5l0,-14" class="g4_56" />
<path d="M472.5,493.5l91,0" class="g4_56" />
<path d="M472.5,507.5l0,-14" class="g4_56" />
<path d="M563.5,507.5l0,-14" class="g4_56" />
<path d="M38.5,507.5l79,0" class="g4_56" />
<path d="M38.5,522.5l0,-14" class="g4_56" />
<path d="M117.5,507.5l32,0" class="g4_56" />
<path d="M117.5,522.5l0,-14" class="g4_56" />
<path d="M149.5,507.5l28,0" class="g4_56" />
<path d="M149.5,522.5l0,-14" class="g4_56" />
<path d="M177.5,507.5l24,0" class="g4_56" />
<path d="M177.5,522.5l0,-14" class="g4_56" />
<path d="M201.5,507.5l26,0" class="g4_56" />
<path d="M201.5,522.5l0,-14" class="g4_56" />
<path d="M227.5,507.5l30,0" class="g4_56" />
<path d="M227.5,522.5l0,-14" class="g4_56" />
<path d="M257.5,507.5l70,0" class="g4_56" />
<path d="M257.5,522.5l0,-14" class="g4_56" />
<path d="M327.5,507.5l69,0" class="g4_56" />
<path d="M327.5,522.5l0,-14" class="g4_56" />
<path d="M396.5,507.5l76,0" class="g4_56" />
<path d="M396.5,522.5l0,-14" class="g4_56" />
<path d="M472.5,507.5l91,0" class="g4_56" />
<path d="M472.5,522.5l0,-14" class="g4_56" />
<path d="M563.5,522.5l0,-14" class="g4_56" />
<path d="M38.5,522.5l79,0" class="g4_56" />
<path d="M38.5,537.5l0,-14" class="g4_56" />
<path d="M117.5,522.5l32,0" class="g4_56" />
<path d="M149.5,522.5l28,0" class="g4_56" />
<path d="M177.5,522.5l24,0" class="g4_56" />
<path d="M201.5,522.5l26,0" class="g4_56" />
<path d="M227.5,522.5l30,0" class="g4_56" />
<path d="M257.5,522.5l70,0" class="g4_56" />
<path d="M327.5,522.5l69,0" class="g4_56" />
<path d="M396.5,522.5l76,0" class="g4_56" />
<path d="M472.5,522.5l91,0" class="g4_56" />
<path d="M563.5,537.5l0,-14" class="g4_56" />
<path d="M38.5,537.5l79,0" class="g4_56" />
<path d="M38.5,554.5l0,-16" class="g4_56" />
<path d="M117.5,537.5l32,0" class="g4_56" />
<path d="M117.5,554.5l0,-16" class="g4_56" />
<path d="M149.5,537.5l28,0" class="g4_56" />
<path d="M149.5,554.5l0,-16" class="g4_56" />
<path d="M177.5,537.5l24,0" class="g4_56" />
<path d="M177.5,554.5l0,-16" class="g4_56" />
<path d="M201.5,537.5l26,0" class="g4_56" />
<path d="M201.5,554.5l0,-16" class="g4_56" />
<path d="M227.5,537.5l30,0" class="g4_56" />
<path d="M227.5,554.5l0,-16" class="g4_56" />
<path d="M257.5,537.5l70,0" class="g4_56" />
<path d="M257.5,554.5l0,-16" class="g4_56" />
<path d="M327.5,537.5l69,0" class="g4_56" />
<path d="M327.5,554.5l0,-16" class="g4_56" />
<path d="M396.5,537.5l76,0" class="g4_56" />
<path d="M396.5,554.5l0,-16" class="g4_56" />
<path d="M472.5,537.5l91,0" class="g4_56" />
<path d="M472.5,554.5l0,-16" class="g4_56" />
<path d="M563.5,554.5l0,-16" class="g4_56" />
<path d="M38.5,554.5l79,0" class="g4_56" />
<path d="M38.5,571.5l0,-16" class="g4_56" />
<path d="M117.5,554.5l32,0" class="g4_56" />
<path d="M117.5,571.5l0,-16" class="g4_56" />
<path d="M149.5,554.5l28,0" class="g4_56" />
<path d="M149.5,571.5l0,-16" class="g4_56" />
<path d="M177.5,554.5l24,0" class="g4_56" />
<path d="M177.5,571.5l0,-16" class="g4_56" />
<path d="M201.5,554.5l26,0" class="g4_56" />
<path d="M201.5,571.5l0,-16" class="g4_56" />
<path d="M227.5,554.5l30,0" class="g4_56" />
<path d="M227.5,571.5l0,-16" class="g4_56" />
<path d="M257.5,554.5l70,0" class="g4_56" />
<path d="M257.5,571.5l0,-16" class="g4_56" />
<path d="M327.5,554.5l69,0" class="g4_56" />
<path d="M327.5,571.5l0,-16" class="g4_56" />
<path d="M396.5,554.5l76,0" class="g4_56" />
<path d="M396.5,571.5l0,-16" class="g4_56" />
<path d="M472.5,554.5l91,0" class="g4_56" />
<path d="M472.5,571.5l0,-16" class="g4_56" />
<path d="M563.5,571.5l0,-16" class="g4_56" />
<path d="M38.5,572.5l79,0" class="g4_56" />
<path d="M38.5,589.5l0,-17" class="g4_56" />
<path d="M117.5,572.5l32,0" class="g4_56" />
<path d="M117.5,589.5l0,-17" class="g4_56" />
<path d="M149.5,572.5l28,0" class="g4_56" />
<path d="M149.5,589.5l0,-17" class="g4_56" />
<path d="M177.5,572.5l24,0" class="g4_56" />
<path d="M177.5,589.5l0,-17" class="g4_56" />
<path d="M201.5,572.5l26,0" class="g4_56" />
<path d="M201.5,589.5l0,-17" class="g4_56" />
<path d="M227.5,572.5l30,0" class="g4_56" />
<path d="M227.5,589.5l0,-17" class="g4_56" />
<path d="M257.5,572.5l70,0" class="g4_56" />
<path d="M257.5,589.5l0,-17" class="g4_56" />
<path d="M327.5,572.5l69,0" class="g4_56" />
<path d="M327.5,589.5l0,-17" class="g4_56" />
<path d="M396.5,572.5l76,0" class="g4_56" />
<path d="M396.5,589.5l0,-17" class="g4_56" />
<path d="M472.5,572.5l91,0" class="g4_56" />
<path d="M472.5,589.5l0,-17" class="g4_56" />
<path d="M563.5,589.5l0,-17" class="g4_56" />
<path d="M38.5,589.5l79,0" class="g4_56" />
<path d="M117.5,589.5l32,0" class="g4_56" />
<path d="M149.5,589.5l28,0" class="g4_56" />
<path d="M177.5,589.5l24,0" class="g4_56" />
<path d="M201.5,589.5l26,0" class="g4_56" />
<path d="M227.5,589.5l30,0" class="g4_56" />
<path d="M257.5,589.5l70,0" class="g4_56" />
<path d="M327.5,589.5l69,0" class="g4_56" />
<path d="M396.5,589.5l76,0" class="g4_56" />
<path d="M472.5,589.5l91,0" class="g4_56" />
<path d="M117.5,118.5l32,0" class="g4_56" />
<path d="M117.5,146.5l0,-27" class="g4_56" />
<path d="M149.5,118.5l28,0" class="g4_56" />
<path d="M177.5,118.5l24,0" class="g4_56" />
<path d="M201.5,118.5l26,0" class="g4_56" />
<path d="M227.5,118.5l30,0" class="g4_56" />
<path d="M257.5,118.5l70,0" class="g4_56" />
<path d="M257.5,146.5l0,-27" class="g4_56" />
<path d="M327.5,118.5l69,0" class="g4_56" />
<path d="M327.5,146.5l0,-27" class="g4_56" />
<path d="M396.5,118.5l76,0" class="g4_56" />
<path d="M396.5,146.5l0,-27" class="g4_56" />
<path d="M472.5,118.5l91,0" class="g4_56" />
<path d="M472.5,146.5l0,-27" class="g4_56" />
<path d="M563.5,146.5l0,-27" class="g4_56" />
<path d="M117.5,146.5l32,0" class="g4_56" />
<path d="M117.5,163.5l0,-17" class="g4_56" />
<path d="M149.5,146.5l28,0" class="g4_56" />
<path d="M149.5,163.5l0,-17" class="g4_56" />
<path d="M177.5,146.5l24,0" class="g4_56" />
<path d="M177.5,163.5l0,-17" class="g4_56" />
<path d="M201.5,146.5l26,0" class="g4_56" />
<path d="M201.5,163.5l0,-17" class="g4_56" />
<path d="M227.5,146.5l31,0" class="g4_56" />
<path d="M227.5,163.5l0,-17" class="g4_56" />
<path d="M257.5,163.5l0,-17" class="g4_56" />
<path d="M327.5,163.5l0,-17" class="g4_56" />
<path d="M396.5,163.5l0,-17" class="g4_56" />
<path d="M472.5,163.5l0,-17" class="g4_56" />
<path d="M563.5,163.5l0,-17" class="g4_56" />
<path d="M117.5,163.5l32,0" class="g4_56" />
<path d="M149.5,163.5l28,0" class="g4_56" />
<path d="M177.5,163.5l24,0" class="g4_56" />
<path d="M201.5,163.5l26,0" class="g4_56" />
<path d="M227.5,163.5l30,0" class="g4_56" />
<path d="M257.5,163.5l70,0" class="g4_56" />
<path d="M327.5,163.5l69,0" class="g4_56" />
<path d="M396.5,163.5l76,0" class="g4_56" />
<path d="M472.5,163.5l91,0" class="g4_56" />
</svg>