<?xml version="1.0" encoding="UTF-8" standalone="no"?>
<!DOCTYPE svg PUBLIC "-//W3C//DTD SVG 1.1//EN"
"http://www.w3.org/Graphics/SVG/1.1/DTD/svg11.dtd">
<svg version="1.1" xmlns="http://www.w3.org/2000/svg" xmlns:xlink="http://www.w3.org/1999/xlink">
<defs>
<clipPath id="c0_60"><path d="M0.5,935.5l0,-935l605,0l0,935Z" /></clipPath>
<style type="text/css"><![CDATA[
.g2_60{
fill: #DB003C;
}
.g1_60{
}
]]></style>
</defs>
<path d="M0,935l605,0l0,-48L0,887l0,48Z" class="g1_60" />
<path d="M0,41l605,0L605,0L0,0L0,41Z" class="g2_60" />
<image x="41" y="805" width="132" height="59" xlink:href="img/1.png" />
<g clip-path="url(#c0_60)">
<path d="M191,598l4,0l3,0l3,0l1,0l3,0l0,-17l-37,0l0,37l37,0l0,-17l-4,0l0,9c0,3,-2,5,-4,5l-21,0c-3,0,-5,-2,-5,-5l0,-21c0,-2,2,-4,5,-4l21,0c2,0,4,2,4,4l0,6l-3,0l0,-3c0,-2,-2,-4,-4,-4l-16,0c-2,0,-4,2,-4,4l0,16c0,2,2,4,4,4l16,0c2,0,4,-2,4,-4l0,-7l-3,0l0,5c0,1,-2,2,-3,2l-12,0c-1,0,-2,-1,-2,-2l0,-12c0,-1,1,-3,2,-3l4,0l8,0l3,0l0,3l0,1l-5,0l-6,0l-1,0c-1,0,-2,0,-2,1l0,7c0,1,1,2,2,2l7,0c0,0,1,-1,1,-2l0,-2l-7,0l0,-3Z" class="g2_60" />
</g>
<path d="M206,616l2,0l-1,0l0,2l0,-2l-1,0Z" class="g2_60" />
<g clip-path="url(#c0_60)">
<path d="M211,618l0,-1c0,0,0,-1,0,-1l-1,2l-1,-2c0,0,0,1,0,1l0,1l0,-2l1,2l1,-2l0,2Z" class="g2_60" />
<path d="M227,598l9,0l0,9c-3,1,-5,1,-8,1c-6,0,-10,-2,-10,-9c0,-6,4,-9,10,-9c4,0,8,2,8,6l-5,0c0,-2,-1,-3,-3,-3c-4,0,-5,3,-5,6c0,4,2,6,5,6c1,0,3,-1,4,-1l0,-3l-5,0Z" class="g1_60" />
</g>
<path d="M238,591l14,0l0,3l-10,0l0,3l10,0l0,3l-10,0l0,4l10,0l0,3l-14,0Z" class="g1_60" />
<path d="M267,591l4,0l0,16l-4,0l-9,-11l0,11l-4,0l0,-16l5,0l8,11Z" class="g1_60" />
<path d="M273,591l14,0l0,3l-9,0l0,3l9,0l0,3l-9,0l0,4l10,0l0,3l-15,0Z" class="g1_60" />
<g clip-path="url(#c0_60)">
<path d="M290,591l10,0c5,0,5,3,5,4c0,2,0,4,-2,4c2,1,2,3,2,5c0,1,0,3,1,3l-5,0c0,0,0,-1,0,-3c0,-2,-1,-3,-2,-3l-5,0l0,6l-4,0ZM294,598l5,0c1,0,2,0,2,-2c0,-2,-1,-2,-2,-2l-5,0Z" class="g1_60" />
</g>
<path d="M318,604l-7,0l-1,3l-5,0l7,-16l5,0l6,16l-4,0ZM314,594l-2,7l5,0Z" class="g1_60" />
<path d="M324,591l4,0l0,13l10,0l0,3l-14,0Z" class="g1_60" />
<g clip-path="url(#c0_60)">
<path d="M354,601c0,4,-3,7,-8,7c-4,0,-7,-4,-7,-9c0,-4,2,-9,7,-9c4,0,7,2,8,6l-2,0c0,-3,-3,-4,-6,-4c-3,0,-6,2,-6,7c0,4,2,7,6,7c4,0,6,-2,6,-5Z" class="g1_60" />
</g>
<path d="M366,602l-8,0l-2,5l-2,0l7,-16l2,0l6,16l-1,0ZM362,593l-4,8l7,0Z" class="g1_60" />
<g clip-path="url(#c0_60)">
<path d="M371,591l8,0c2,0,5,1,5,4c0,2,-1,4,-3,4c2,1,2,2,2,5c1,1,1,3,1,3l-2,0c0,0,0,-1,0,-3c0,-3,-1,-4,-4,-4l-6,0l0,7l-1,0ZM372,599l7,0c2,0,3,-1,3,-4c0,-2,-2,-3,-3,-3l-7,0Z" class="g1_60" />
<path d="M386,591l9,0c3,0,4,2,4,4c0,2,-1,3,-3,4c2,0,3,2,3,4c0,3,-2,4,-5,4l-8,0ZM388,598l6,0c2,0,3,-1,3,-3c0,-2,-1,-3,-3,-3l-6,0ZM388,606l6,0c2,0,4,-1,4,-3c0,-3,-2,-3,-3,-3l-7,0Z" class="g1_60" />
</g>
<path d="M402,591l2,0l0,16l-2,0l0,-16Z" class="g1_60" />
<g clip-path="url(#c0_60)">
<path d="M407,591l7,0c4,0,7,3,7,8c0,5,-2,8,-7,8l-7,0ZM408,606l6,0c3,0,5,-2,5,-7c0,-4,-1,-7,-5,-7l-6,0Z" class="g1_60" />
</g>
<path d="M423,591l12,0l0,1l-11,0l0,6l10,0l0,2l-10,0l0,6l11,0l0,1l-12,0Z" class="g1_60" />
<g clip-path="url(#c0_60)">
<path d="M437,606c0,-1,1,-1,1,-1c1,0,2,0,2,1c0,1,-1,2,-2,2c0,0,-1,-1,-1,-2m1,2c1,0,2,-1,2,-2c0,-1,-1,-1,-2,-1c0,0,-1,0,-1,1c0,1,1,2,1,2m0,-1l0,-2l1,0l0,1l0,1l-1,-1ZM438,606c1,0,1,0,1,0l-1,0Z" class="g1_60" />
</g>
</svg>