<?xml version="1.0" encoding="UTF-8" standalone="no"?>
<!DOCTYPE svg PUBLIC "-//W3C//DTD SVG 1.1//EN"
"http://www.w3.org/Graphics/SVG/1.1/DTD/svg11.dtd">
<svg version="1.1" xmlns="http://www.w3.org/2000/svg" xmlns:xlink="http://www.w3.org/1999/xlink">
<defs>
<clipPath id="c0_13"><path d="M202.5,877.5l0,-27l193,0l0,27Z" /></clipPath>
<clipPath id="c1_13"><path d="M0.5,935.5l0,-935l605,0l0,935Z" /></clipPath>
<style type="text/css"><![CDATA[
.g3_13{
}
.g1_13{
fill: #DC4244;
}
.g5_13{
fill: #DB003C;
}
.g2_13{
fill: none;
stroke: #DC4244;
stroke-width: 1;
stroke-linecap: butt;
stroke-linejoin: miter;
}
.g6_13{
fill: none;
stroke: #000000;
stroke-width: 1;
stroke-linecap: butt;
stroke-linejoin: miter;
stroke-miterlimit: 4;
}
.g4_13{
fill: none;
stroke: #000000;
stroke-width: 1;
stroke-linecap: butt;
stroke-linejoin: miter;
}
]]></style>
</defs>
<g clip-path="url(#c0_13)">
<path d="M219,862l2,0l3,0l2,0l2,0l0,-12l-26,0l0,27l26,0l0,-12l-2,0l0,6c0,2,-1,3,-3,3l-15,0c-2,0,-3,-1,-3,-3l0,-15c0,-2,1,-3,3,-3l15,0c2,0,3,1,3,3l0,4l-2,0l0,-2c0,-2,-1,-3,-3,-3l-11,0c-2,0,-3,1,-3,3l0,11c0,2,1,3,3,3l11,0c2,0,3,-1,3,-3l0,-4l-3,0l0,3c0,1,-1,1,-2,1l-8,0c-1,0,-2,0,-2,-1l0,-9c0,-1,1,-2,2,-2l3,0l5,0l2,0l0,2l0,1l-3,0l-4,0l-1,0c-1,0,-1,0,-1,1l0,5c0,1,0,1,1,1l5,0c0,0,1,0,1,-1l0,-1l-5,0l0,-3l5,0Z" class="g1_13" />
<path d="M230.5,877.5l0,-2" class="g2_13" />
<path d="M233,877l0,-1c0,-1,0,-1,0,-1l-1,2l-1,-2l0,1l0,1l0,-2l1,0l0,1l1,-1l0,2Z" class="g1_13" />
<path d="M245,862l5,0l0,7c-1,0,-3,0,-5,0c-4,0,-7,-1,-7,-6c0,-4,3,-6,7,-6c3,0,5,1,6,4l-4,0c0,-2,-1,-2,-2,-2c-3,0,-4,2,-4,4c0,2,2,4,4,4c1,0,2,0,2,0l0,-2l-2,0l0,-3Z" class="g3_13" />
<path d="M252,857l10,0l0,2l-7,0l0,3l7,0l0,2l-7,0l0,3l7,0l0,2l-10,0Z" class="g3_13" />
<path d="M272,857l3,0l0,12l-3,0l-6,-8l0,8l-2,0l0,-12l3,0l5,8Z" class="g3_13" />
<path d="M277,857l10,0l0,2l-7,0l0,3l7,0l0,2l-7,0l0,3l7,0l0,2l-10,0Z" class="g3_13" />
<path d="M288,857l8,0c3,0,3,2,3,3c0,2,0,3,-1,3c1,0,1,2,1,3c0,1,0,2,1,3l-3,0c-1,-1,-1,-1,-1,-2c0,-2,0,-2,-1,-2l-4,0l0,4l-3,0ZM291,862l4,0c1,0,1,0,1,-1c0,-1,0,-2,-1,-2l-4,0l0,3Z" class="g3_13" />
<path d="M308,866l-4,0l-1,3l-3,0l4,-12l4,0l4,12l-3,0ZM306,860l-2,4l4,0Z" class="g3_13" />
<path d="M313,857l3,0l0,10l6,0l0,2l-9,0Z" class="g3_13" />
<path d="M334,864c0,3,-2,5,-5,5c-4,0,-6,-2,-6,-6c0,-3,1,-6,6,-6c2,0,4,1,5,4l-1,0c-1,-2,-3,-3,-4,-3c-3,0,-5,2,-5,5c0,3,1,5,5,5c2,0,3,-1,4,-4l1,0Z" class="g3_13" />
<path d="M342,865l-5,0l-2,4l-1,0l5,-12l1,0l5,12l-1,0ZM339,858l-2,6l5,0Z" class="g3_13" />
<path d="M346,857l5,0c2,0,4,1,4,3c0,2,-1,3,-2,3c1,0,2,1,2,3c0,1,0,3,0,3l-1,0c0,0,0,-1,0,-3c0,-2,-1,-2,-3,-2l-4,0l0,5l-1,0ZM347,863l4,0c2,0,3,-1,3,-3c0,-1,-1,-2,-2,-2l-5,0l0,5Z" class="g3_13" />
<path d="M357,857l6,0c2,0,3,1,3,3c0,1,-1,2,-2,3c1,0,2,1,2,2c0,3,-2,4,-4,4l-5,0ZM358,862l4,0c2,0,2,0,2,-2c0,-1,0,-2,-2,-2l-4,0ZM358,868l4,0c2,0,3,-1,3,-3c0,-1,-1,-2,-2,-2l-5,0l0,5Z" class="g3_13" />
<path d="M368.5,869.5l0,-12" class="g4_13" />
<path d="M371,857l5,0c3,0,5,2,5,6c0,3,-2,6,-4,6l-6,0ZM372,868l4,0c2,0,4,-1,4,-5c0,-3,-1,-5,-4,-5l-4,0l0,10Z" class="g3_13" />
<path d="M382,857l9,0l0,1l-7,0l0,4l7,0l0,1l-7,0l0,5l7,0l0,1l-9,0Z" class="g3_13" />
<path d="M392,868c0,-1,1,-1,2,-1c0,0,1,0,1,1c0,1,-1,1,-1,1c-1,0,-2,0,-2,-1m2,1l0,-1c0,-1,0,-1,0,-1c-1,0,-1,0,-1,1c0,1,0,1,1,1m-1,0l0,-2l1,0l0,1l0,1l0,-1l-1,0ZM394,868c0,0,0,-1,0,-1l-1,0l0,1l1,0Z" class="g3_13" />
</g>
<g clip-path="url(#c1_13)">
<path d="M0,935l605,0l0,-48L0,887l0,48Z" class="g3_13" />
<path d="M0,41l605,0L605,0L0,0L0,41Z" class="g5_13" />
</g>
<image x="49" y="260" width="472" height="251" xlink:href="img/1.png" />
<path d="M285.5,672.5l14,0" class="g6_13" />
</svg>