<?xml version="1.0" encoding="UTF-8" standalone="no"?>
<!DOCTYPE svg PUBLIC "-//W3C//DTD SVG 1.1//EN"
"http://www.w3.org/Graphics/SVG/1.1/DTD/svg11.dtd">
<svg version="1.1" xmlns="http://www.w3.org/2000/svg" xmlns:xlink="http://www.w3.org/1999/xlink">
<defs>
<clipPath id="c0_55"><path d="M202.5,877.5l0,-27l193,0l0,27Z" /></clipPath>
<clipPath id="c1_55"><path d="M0.5,935.5l0,-935l605,0l0,935Z" /></clipPath>
<style type="text/css"><![CDATA[
.g3_55{
}
.g1_55{
fill: #DC4244;
}
.g6_55{
fill: #5C5C5C;
}
.g5_55{
fill: #DB003C;
}
.g2_55{
fill: none;
stroke: #DC4244;
stroke-width: 1;
stroke-linecap: butt;
stroke-linejoin: miter;
}
.g7_55{
fill: #E7E7E7;
}
.g4_55{
fill: none;
stroke: #000000;
stroke-width: 1;
stroke-linecap: butt;
stroke-linejoin: miter;
}
]]></style>
</defs>
<g clip-path="url(#c0_55)">
<path d="M219,862l2,0l3,0l2,0l2,0l0,-12l-26,0l0,27l26,0l0,-12l-2,0l0,6c0,2,-1,3,-3,3l-15,0c-2,0,-3,-1,-3,-3l0,-15c0,-2,1,-3,3,-3l15,0c2,0,3,1,3,3l0,4l-2,0l0,-2c0,-2,-1,-3,-3,-3l-11,0c-2,0,-3,1,-3,3l0,11c0,2,1,3,3,3l11,0c2,0,3,-1,3,-3l0,-4l-3,0l0,3c0,1,-1,1,-2,1l-8,0c-1,0,-2,0,-2,-1l0,-9c0,-1,1,-2,2,-2l3,0l5,0l2,0l0,2l0,1l-3,0l-4,0l-1,0c-1,0,-1,0,-1,1l0,5c0,1,0,1,1,1l5,0c0,0,1,0,1,-1l0,-1l-5,0l0,-3l5,0Z" class="g1_55" />
<path d="M230.5,877.5l0,-2" class="g2_55" />
<path d="M233,877l0,-1c0,-1,0,-1,0,-1l-1,2l-1,-2l0,1l0,1l0,-2l1,0l0,1l1,-1l0,2Z" class="g1_55" />
<path d="M245,862l5,0l0,7c-1,0,-3,0,-5,0c-4,0,-7,-1,-7,-6c0,-4,3,-6,7,-6c3,0,5,1,6,4l-4,0c0,-2,-1,-2,-2,-2c-3,0,-4,2,-4,4c0,2,2,4,4,4c1,0,2,0,2,0l0,-2l-2,0l0,-3Z" class="g3_55" />
<path d="M252,857l10,0l0,2l-7,0l0,3l7,0l0,2l-7,0l0,3l7,0l0,2l-10,0Z" class="g3_55" />
<path d="M272,857l3,0l0,12l-3,0l-6,-8l0,8l-2,0l0,-12l3,0l5,8Z" class="g3_55" />
<path d="M277,857l10,0l0,2l-7,0l0,3l7,0l0,2l-7,0l0,3l7,0l0,2l-10,0Z" class="g3_55" />
<path d="M288,857l8,0c3,0,3,2,3,3c0,2,0,3,-1,3c1,0,1,2,1,3c0,1,0,2,1,3l-3,0c-1,-1,-1,-1,-1,-2c0,-2,0,-2,-1,-2l-4,0l0,4l-3,0ZM291,862l4,0c1,0,1,0,1,-1c0,-1,0,-2,-1,-2l-4,0l0,3Z" class="g3_55" />
<path d="M308,866l-4,0l-1,3l-3,0l4,-12l4,0l4,12l-3,0ZM306,860l-2,4l4,0Z" class="g3_55" />
<path d="M313,857l3,0l0,10l6,0l0,2l-9,0Z" class="g3_55" />
<path d="M334,864c0,3,-2,5,-5,5c-4,0,-6,-2,-6,-6c0,-3,1,-6,6,-6c2,0,4,1,5,4l-1,0c-1,-2,-3,-3,-4,-3c-3,0,-5,2,-5,5c0,3,1,5,5,5c2,0,3,-1,4,-4l1,0Z" class="g3_55" />
<path d="M342,865l-5,0l-2,4l-1,0l5,-12l1,0l5,12l-1,0ZM339,858l-2,6l5,0Z" class="g3_55" />
<path d="M346,857l5,0c2,0,4,1,4,3c0,2,-1,3,-2,3c1,0,2,1,2,3c0,1,0,3,0,3l-1,0c0,0,0,-1,0,-3c0,-2,-1,-2,-3,-2l-4,0l0,5l-1,0ZM347,863l4,0c2,0,3,-1,3,-3c0,-1,-1,-2,-2,-2l-5,0l0,5Z" class="g3_55" />
<path d="M357,857l6,0c2,0,3,1,3,3c0,1,-1,2,-2,3c1,0,2,1,2,2c0,3,-2,4,-4,4l-5,0ZM358,862l4,0c2,0,2,0,2,-2c0,-1,0,-2,-2,-2l-4,0ZM358,868l4,0c2,0,3,-1,3,-3c0,-1,-1,-2,-2,-2l-5,0l0,5Z" class="g3_55" />
<path d="M368.5,869.5l0,-12" class="g4_55" />
<path d="M371,857l5,0c3,0,5,2,5,6c0,3,-2,6,-4,6l-6,0ZM372,868l4,0c2,0,4,-1,4,-5c0,-3,-1,-5,-4,-5l-4,0l0,10Z" class="g3_55" />
<path d="M382,857l9,0l0,1l-7,0l0,4l7,0l0,1l-7,0l0,5l7,0l0,1l-9,0Z" class="g3_55" />
<path d="M392,868c0,-1,1,-1,2,-1c0,0,1,0,1,1c0,1,-1,1,-1,1c-1,0,-2,0,-2,-1m2,1l0,-1c0,-1,0,-1,0,-1c-1,0,-1,0,-1,1c0,1,0,1,1,1m-1,0l0,-2l1,0l0,1l0,1l0,-1l-1,0ZM394,868c0,0,0,-1,0,-1l-1,0l0,1l1,0Z" class="g3_55" />
</g>
<g clip-path="url(#c1_55)">
<path d="M0,935l605,0l0,-48L0,887l0,48Z" class="g3_55" />
<path d="M0,41l605,0L605,0L0,0L0,41Z" class="g5_55" />
</g>
<path d="M195,115l106,0l0,22l-106,0l0,-22ZM301,115l86,0l0,39l-86,0l0,-39ZM387,115l89,0l0,39l-89,0l0,-39ZM476,115l92,0l0,39l-92,0l0,-39ZM195,137l37,0l0,17l-37,0l0,-17ZM232,137l36,0l0,17l-36,0l0,-17ZM268,137l33,0l0,17l-33,0l0,-17Z" class="g6_55" />
<path d="M41,154l527,0l0,16L41,170l0,-16Z" class="g7_55" />
<path d="M301.5,115.5l86,0" class="g4_55" />
<path d="M387.5,115.5l89,0" class="g4_55" />
<path d="M387.5,137.5l0,-21" class="g4_55" />
<path d="M476.5,115.5l92,0" class="g4_55" />
<path d="M476.5,137.5l0,-21" class="g4_55" />
<path d="M568.5,137.5l0,-21" class="g4_55" />
<path d="M387.5,153.5l0,-16" class="g4_55" />
<path d="M476.5,153.5l0,-16" class="g4_55" />
<path d="M568.5,153.5l0,-16" class="g4_55" />
<path d="M41.5,186.5l0,-16" class="g4_55" />
<path d="M568.5,186.5l0,-16" class="g4_55" />
<path d="M41.5,186.5l154,0" class="g4_55" />
<path d="M41.5,202.5l0,-15" class="g4_55" />
<path d="M195.5,186.5l37,0" class="g4_55" />
<path d="M195.5,202.5l0,-15" class="g4_55" />
<path d="M232.5,186.5l36,0" class="g4_55" />
<path d="M232.5,202.5l0,-15" class="g4_55" />
<path d="M268.5,186.5l33,0" class="g4_55" />
<path d="M268.5,202.5l0,-15" class="g4_55" />
<path d="M301.5,186.5l86,0" class="g4_55" />
<path d="M301.5,202.5l0,-15" class="g4_55" />
<path d="M387.5,186.5l89,0" class="g4_55" />
<path d="M387.5,202.5l0,-15" class="g4_55" />
<path d="M476.5,186.5l92,0" class="g4_55" />
<path d="M476.5,202.5l0,-15" class="g4_55" />
<path d="M568.5,202.5l0,-15" class="g4_55" />
<path d="M41.5,203.5l154,0" class="g4_55" />
<path d="M41.5,219.5l0,-16" class="g4_55" />
<path d="M195.5,203.5l37,0" class="g4_55" />
<path d="M195.5,219.5l0,-16" class="g4_55" />
<path d="M232.5,203.5l36,0" class="g4_55" />
<path d="M232.5,219.5l0,-16" class="g4_55" />
<path d="M268.5,203.5l33,0" class="g4_55" />
<path d="M268.5,219.5l0,-16" class="g4_55" />
<path d="M301.5,203.5l86,0" class="g4_55" />
<path d="M301.5,219.5l0,-16" class="g4_55" />
<path d="M387.5,203.5l89,0" class="g4_55" />
<path d="M387.5,219.5l0,-16" class="g4_55" />
<path d="M476.5,203.5l92,0" class="g4_55" />
<path d="M476.5,219.5l0,-16" class="g4_55" />
<path d="M568.5,219.5l0,-16" class="g4_55" />
<path d="M41.5,219.5l154,0" class="g4_55" />
<path d="M41.5,235.5l0,-16" class="g4_55" />
<path d="M195.5,219.5l37,0" class="g4_55" />
<path d="M195.5,235.5l0,-16" class="g4_55" />
<path d="M232.5,219.5l36,0" class="g4_55" />
<path d="M232.5,235.5l0,-16" class="g4_55" />
<path d="M268.5,219.5l33,0" class="g4_55" />
<path d="M268.5,235.5l0,-16" class="g4_55" />
<path d="M301.5,219.5l86,0" class="g4_55" />
<path d="M301.5,235.5l0,-16" class="g4_55" />
<path d="M387.5,219.5l89,0" class="g4_55" />
<path d="M387.5,235.5l0,-16" class="g4_55" />
<path d="M476.5,219.5l92,0" class="g4_55" />
<path d="M476.5,235.5l0,-16" class="g4_55" />
<path d="M568.5,235.5l0,-16" class="g4_55" />
<path d="M41.5,235.5l154,0" class="g4_55" />
<path d="M41.5,252.5l0,-16" class="g4_55" />
<path d="M195.5,235.5l37,0" class="g4_55" />
<path d="M232.5,235.5l36,0" class="g4_55" />
<path d="M268.5,235.5l33,0" class="g4_55" />
<path d="M301.5,235.5l86,0" class="g4_55" />
<path d="M387.5,235.5l89,0" class="g4_55" />
<path d="M476.5,235.5l92,0" class="g4_55" />
<path d="M568.5,252.5l0,-16" class="g4_55" />
<path d="M41.5,252.5l154,0" class="g4_55" />
<path d="M41.5,268.5l0,-16" class="g4_55" />
<path d="M195.5,252.5l37,0" class="g4_55" />
<path d="M195.5,268.5l0,-16" class="g4_55" />
<path d="M232.5,252.5l36,0" class="g4_55" />
<path d="M232.5,268.5l0,-16" class="g4_55" />
<path d="M268.5,252.5l33,0" class="g4_55" />
<path d="M268.5,268.5l0,-16" class="g4_55" />
<path d="M301.5,252.5l86,0" class="g4_55" />
<path d="M301.5,268.5l0,-16" class="g4_55" />
<path d="M387.5,252.5l89,0" class="g4_55" />
<path d="M387.5,268.5l0,-16" class="g4_55" />
<path d="M476.5,252.5l92,0" class="g4_55" />
<path d="M476.5,268.5l0,-16" class="g4_55" />
<path d="M568.5,268.5l0,-16" class="g4_55" />
<path d="M41.5,268.5l154,0" class="g4_55" />
<path d="M41.5,284.5l0,-16" class="g4_55" />
<path d="M195.5,268.5l37,0" class="g4_55" />
<path d="M195.5,284.5l0,-16" class="g4_55" />
<path d="M232.5,268.5l36,0" class="g4_55" />
<path d="M232.5,284.5l0,-16" class="g4_55" />
<path d="M268.5,268.5l33,0" class="g4_55" />
<path d="M268.5,284.5l0,-16" class="g4_55" />
<path d="M301.5,268.5l86,0" class="g4_55" />
<path d="M301.5,284.5l0,-16" class="g4_55" />
<path d="M387.5,268.5l89,0" class="g4_55" />
<path d="M387.5,284.5l0,-16" class="g4_55" />
<path d="M476.5,268.5l92,0" class="g4_55" />
<path d="M476.5,284.5l0,-16" class="g4_55" />
<path d="M568.5,284.5l0,-16" class="g4_55" />
<path d="M41.5,285.5l154,0" class="g4_55" />
<path d="M41.5,301.5l0,-16" class="g4_55" />
<path d="M195.5,285.5l37,0" class="g4_55" />
<path d="M195.5,301.5l0,-16" class="g4_55" />
<path d="M232.5,285.5l36,0" class="g4_55" />
<path d="M232.5,301.5l0,-16" class="g4_55" />
<path d="M268.5,285.5l33,0" class="g4_55" />
<path d="M268.5,301.5l0,-16" class="g4_55" />
<path d="M301.5,285.5l86,0" class="g4_55" />
<path d="M301.5,301.5l0,-16" class="g4_55" />
<path d="M387.5,285.5l89,0" class="g4_55" />
<path d="M387.5,301.5l0,-16" class="g4_55" />
<path d="M476.5,285.5l92,0" class="g4_55" />
<path d="M476.5,301.5l0,-16" class="g4_55" />
<path d="M568.5,301.5l0,-16" class="g4_55" />
<path d="M41.5,301.5l154,0" class="g4_55" />
<path d="M41.5,317.5l0,-16" class="g4_55" />
<path d="M195.5,301.5l37,0" class="g4_55" />
<path d="M195.5,317.5l0,-16" class="g4_55" />
<path d="M232.5,301.5l36,0" class="g4_55" />
<path d="M232.5,317.5l0,-16" class="g4_55" />
<path d="M268.5,301.5l33,0" class="g4_55" />
<path d="M268.5,317.5l0,-16" class="g4_55" />
<path d="M301.5,301.5l86,0" class="g4_55" />
<path d="M301.5,317.5l0,-16" class="g4_55" />
<path d="M387.5,301.5l89,0" class="g4_55" />
<path d="M387.5,317.5l0,-16" class="g4_55" />
<path d="M476.5,301.5l92,0" class="g4_55" />
<path d="M476.5,317.5l0,-16" class="g4_55" />
<path d="M568.5,317.5l0,-16" class="g4_55" />
<path d="M41.5,317.5l154,0" class="g4_55" />
<path d="M41.5,333.5l0,-15" class="g4_55" />
<path d="M195.5,317.5l37,0" class="g4_55" />
<path d="M195.5,333.5l0,-15" class="g4_55" />
<path d="M232.5,317.5l36,0" class="g4_55" />
<path d="M232.5,333.5l0,-15" class="g4_55" />
<path d="M268.5,317.5l33,0" class="g4_55" />
<path d="M268.5,333.5l0,-15" class="g4_55" />
<path d="M301.5,317.5l86,0" class="g4_55" />
<path d="M301.5,333.5l0,-15" class="g4_55" />
<path d="M387.5,317.5l89,0" class="g4_55" />
<path d="M387.5,333.5l0,-15" class="g4_55" />
<path d="M476.5,317.5l92,0" class="g4_55" />
<path d="M476.5,333.5l0,-15" class="g4_55" />
<path d="M568.5,333.5l0,-15" class="g4_55" />
<path d="M41.5,334.5l154,0" class="g4_55" />
<path d="M41.5,350.5l0,-16" class="g4_55" />
<path d="M195.5,334.5l37,0" class="g4_55" />
<path d="M232.5,334.5l36,0" class="g4_55" />
<path d="M268.5,334.5l33,0" class="g4_55" />
<path d="M301.5,334.5l86,0" class="g4_55" />
<path d="M387.5,334.5l89,0" class="g4_55" />
<path d="M476.5,334.5l92,0" class="g4_55" />
<path d="M568.5,350.5l0,-16" class="g4_55" />
<path d="M41.5,350.5l154,0" class="g4_55" />
<path d="M41.5,366.5l0,-16" class="g4_55" />
<path d="M195.5,350.5l37,0" class="g4_55" />
<path d="M195.5,366.5l0,-16" class="g4_55" />
<path d="M232.5,350.5l36,0" class="g4_55" />
<path d="M232.5,366.5l0,-16" class="g4_55" />
<path d="M268.5,350.5l33,0" class="g4_55" />
<path d="M268.5,366.5l0,-16" class="g4_55" />
<path d="M301.5,350.5l86,0" class="g4_55" />
<path d="M301.5,366.5l0,-16" class="g4_55" />
<path d="M387.5,350.5l89,0" class="g4_55" />
<path d="M387.5,366.5l0,-16" class="g4_55" />
<path d="M476.5,350.5l92,0" class="g4_55" />
<path d="M476.5,366.5l0,-16" class="g4_55" />
<path d="M568.5,366.5l0,-16" class="g4_55" />
<path d="M41.5,366.5l154,0" class="g4_55" />
<path d="M41.5,382.5l0,-15" class="g4_55" />
<path d="M195.5,366.5l37,0" class="g4_55" />
<path d="M195.5,382.5l0,-15" class="g4_55" />
<path d="M232.5,366.5l36,0" class="g4_55" />
<path d="M232.5,382.5l0,-15" class="g4_55" />
<path d="M268.5,366.5l33,0" class="g4_55" />
<path d="M268.5,382.5l0,-15" class="g4_55" />
<path d="M301.5,366.5l86,0" class="g4_55" />
<path d="M301.5,382.5l0,-15" class="g4_55" />
<path d="M387.5,366.5l89,0" class="g4_55" />
<path d="M387.5,382.5l0,-15" class="g4_55" />
<path d="M476.5,366.5l92,0" class="g4_55" />
<path d="M476.5,382.5l0,-15" class="g4_55" />
<path d="M568.5,382.5l0,-15" class="g4_55" />
<path d="M41.5,383.5l154,0" class="g4_55" />
<path d="M41.5,399.5l0,-16" class="g4_55" />
<path d="M195.5,383.5l37,0" class="g4_55" />
<path d="M195.5,399.5l0,-16" class="g4_55" />
<path d="M232.5,383.5l36,0" class="g4_55" />
<path d="M232.5,399.5l0,-16" class="g4_55" />
<path d="M268.5,383.5l33,0" class="g4_55" />
<path d="M268.5,399.5l0,-16" class="g4_55" />
<path d="M301.5,383.5l86,0" class="g4_55" />
<path d="M301.5,399.5l0,-16" class="g4_55" />
<path d="M387.5,383.5l89,0" class="g4_55" />
<path d="M387.5,399.5l0,-16" class="g4_55" />
<path d="M476.5,383.5l92,0" class="g4_55" />
<path d="M476.5,399.5l0,-16" class="g4_55" />
<path d="M568.5,399.5l0,-16" class="g4_55" />
<path d="M41.5,399.5l154,0" class="g4_55" />
<path d="M41.5,415.5l0,-16" class="g4_55" />
<path d="M195.5,399.5l37,0" class="g4_55" />
<path d="M195.5,415.5l0,-16" class="g4_55" />
<path d="M232.5,399.5l36,0" class="g4_55" />
<path d="M232.5,415.5l0,-16" class="g4_55" />
<path d="M268.5,399.5l33,0" class="g4_55" />
<path d="M268.5,415.5l0,-16" class="g4_55" />
<path d="M301.5,399.5l86,0" class="g4_55" />
<path d="M301.5,415.5l0,-16" class="g4_55" />
<path d="M387.5,399.5l89,0" class="g4_55" />
<path d="M387.5,415.5l0,-16" class="g4_55" />
<path d="M476.5,399.5l92,0" class="g4_55" />
<path d="M476.5,415.5l0,-16" class="g4_55" />
<path d="M568.5,415.5l0,-16" class="g4_55" />
<path d="M41.5,415.5l154,0" class="g4_55" />
<path d="M41.5,432.5l0,-16" class="g4_55" />
<path d="M195.5,415.5l37,0" class="g4_55" />
<path d="M195.5,432.5l0,-16" class="g4_55" />
<path d="M232.5,415.5l36,0" class="g4_55" />
<path d="M232.5,432.5l0,-16" class="g4_55" />
<path d="M268.5,415.5l33,0" class="g4_55" />
<path d="M268.5,432.5l0,-16" class="g4_55" />
<path d="M301.5,415.5l86,0" class="g4_55" />
<path d="M301.5,432.5l0,-16" class="g4_55" />
<path d="M387.5,415.5l89,0" class="g4_55" />
<path d="M387.5,432.5l0,-16" class="g4_55" />
<path d="M476.5,415.5l92,0" class="g4_55" />
<path d="M476.5,432.5l0,-16" class="g4_55" />
<path d="M568.5,432.5l0,-16" class="g4_55" />
<path d="M41.5,432.5l154,0" class="g4_55" />
<path d="M41.5,448.5l0,-16" class="g4_55" />
<path d="M195.5,432.5l37,0" class="g4_55" />
<path d="M232.5,432.5l36,0" class="g4_55" />
<path d="M268.5,432.5l33,0" class="g4_55" />
<path d="M301.5,432.5l86,0" class="g4_55" />
<path d="M387.5,432.5l89,0" class="g4_55" />
<path d="M476.5,432.5l92,0" class="g4_55" />
<path d="M568.5,448.5l0,-16" class="g4_55" />
<path d="M41.5,448.5l154,0" class="g4_55" />
<path d="M41.5,464.5l0,-16" class="g4_55" />
<path d="M195.5,448.5l37,0" class="g4_55" />
<path d="M195.5,464.5l0,-16" class="g4_55" />
<path d="M232.5,448.5l36,0" class="g4_55" />
<path d="M232.5,464.5l0,-16" class="g4_55" />
<path d="M268.5,448.5l33,0" class="g4_55" />
<path d="M268.5,464.5l0,-16" class="g4_55" />
<path d="M301.5,448.5l86,0" class="g4_55" />
<path d="M301.5,464.5l0,-16" class="g4_55" />
<path d="M387.5,448.5l89,0" class="g4_55" />
<path d="M387.5,464.5l0,-16" class="g4_55" />
<path d="M476.5,448.5l92,0" class="g4_55" />
<path d="M476.5,464.5l0,-16" class="g4_55" />
<path d="M568.5,464.5l0,-16" class="g4_55" />
<path d="M41.5,465.5l154,0" class="g4_55" />
<path d="M41.5,481.5l0,-16" class="g4_55" />
<path d="M195.5,465.5l37,0" class="g4_55" />
<path d="M195.5,481.5l0,-16" class="g4_55" />
<path d="M232.5,465.5l36,0" class="g4_55" />
<path d="M232.5,481.5l0,-16" class="g4_55" />
<path d="M268.5,465.5l33,0" class="g4_55" />
<path d="M268.5,481.5l0,-16" class="g4_55" />
<path d="M301.5,465.5l86,0" class="g4_55" />
<path d="M301.5,481.5l0,-16" class="g4_55" />
<path d="M387.5,465.5l89,0" class="g4_55" />
<path d="M387.5,481.5l0,-16" class="g4_55" />
<path d="M476.5,465.5l92,0" class="g4_55" />
<path d="M476.5,481.5l0,-16" class="g4_55" />
<path d="M568.5,481.5l0,-16" class="g4_55" />
<path d="M41.5,481.5l154,0" class="g4_55" />
<path d="M41.5,497.5l0,-16" class="g4_55" />
<path d="M195.5,481.5l37,0" class="g4_55" />
<path d="M195.5,497.5l0,-16" class="g4_55" />
<path d="M232.5,481.5l36,0" class="g4_55" />
<path d="M232.5,497.5l0,-16" class="g4_55" />
<path d="M268.5,481.5l33,0" class="g4_55" />
<path d="M268.5,497.5l0,-16" class="g4_55" />
<path d="M301.5,481.5l86,0" class="g4_55" />
<path d="M301.5,497.5l0,-16" class="g4_55" />
<path d="M387.5,481.5l89,0" class="g4_55" />
<path d="M387.5,497.5l0,-16" class="g4_55" />
<path d="M476.5,481.5l92,0" class="g4_55" />
<path d="M476.5,497.5l0,-16" class="g4_55" />
<path d="M568.5,497.5l0,-16" class="g4_55" />
<path d="M41.5,497.5l154,0" class="g4_55" />
<path d="M41.5,513.5l0,-15" class="g4_55" />
<path d="M195.5,497.5l37,0" class="g4_55" />
<path d="M195.5,513.5l0,-15" class="g4_55" />
<path d="M232.5,497.5l36,0" class="g4_55" />
<path d="M232.5,513.5l0,-15" class="g4_55" />
<path d="M268.5,497.5l33,0" class="g4_55" />
<path d="M268.5,513.5l0,-15" class="g4_55" />
<path d="M301.5,497.5l86,0" class="g4_55" />
<path d="M301.5,513.5l0,-15" class="g4_55" />
<path d="M387.5,497.5l89,0" class="g4_55" />
<path d="M387.5,513.5l0,-15" class="g4_55" />
<path d="M476.5,497.5l92,0" class="g4_55" />
<path d="M476.5,513.5l0,-15" class="g4_55" />
<path d="M568.5,513.5l0,-15" class="g4_55" />
<path d="M41.5,514.5l154,0" class="g4_55" />
<path d="M41.5,530.5l0,-16" class="g4_55" />
<path d="M195.5,514.5l37,0" class="g4_55" />
<path d="M195.5,530.5l0,-16" class="g4_55" />
<path d="M232.5,514.5l36,0" class="g4_55" />
<path d="M232.5,530.5l0,-16" class="g4_55" />
<path d="M268.5,514.5l33,0" class="g4_55" />
<path d="M268.5,530.5l0,-16" class="g4_55" />
<path d="M301.5,514.5l86,0" class="g4_55" />
<path d="M301.5,530.5l0,-16" class="g4_55" />
<path d="M387.5,514.5l89,0" class="g4_55" />
<path d="M387.5,530.5l0,-16" class="g4_55" />
<path d="M476.5,514.5l92,0" class="g4_55" />
<path d="M476.5,530.5l0,-16" class="g4_55" />
<path d="M568.5,530.5l0,-16" class="g4_55" />
<path d="M41.5,530.5l154,0" class="g4_55" />
<path d="M41.5,546.5l0,-16" class="g4_55" />
<path d="M195.5,530.5l37,0" class="g4_55" />
<path d="M195.5,546.5l0,-16" class="g4_55" />
<path d="M232.5,530.5l36,0" class="g4_55" />
<path d="M232.5,546.5l0,-16" class="g4_55" />
<path d="M268.5,530.5l33,0" class="g4_55" />
<path d="M268.5,546.5l0,-16" class="g4_55" />
<path d="M301.5,530.5l86,0" class="g4_55" />
<path d="M301.5,546.5l0,-16" class="g4_55" />
<path d="M387.5,530.5l89,0" class="g4_55" />
<path d="M387.5,546.5l0,-16" class="g4_55" />
<path d="M476.5,530.5l92,0" class="g4_55" />
<path d="M476.5,546.5l0,-16" class="g4_55" />
<path d="M568.5,546.5l0,-16" class="g4_55" />
<path d="M41.5,546.5l154,0" class="g4_55" />
<path d="M41.5,562.5l0,-15" class="g4_55" />
<path d="M195.5,546.5l37,0" class="g4_55" />
<path d="M195.5,562.5l0,-15" class="g4_55" />
<path d="M232.5,546.5l36,0" class="g4_55" />
<path d="M232.5,562.5l0,-15" class="g4_55" />
<path d="M268.5,546.5l33,0" class="g4_55" />
<path d="M268.5,562.5l0,-15" class="g4_55" />
<path d="M301.5,546.5l86,0" class="g4_55" />
<path d="M301.5,562.5l0,-15" class="g4_55" />
<path d="M387.5,546.5l89,0" class="g4_55" />
<path d="M387.5,562.5l0,-15" class="g4_55" />
<path d="M476.5,546.5l92,0" class="g4_55" />
<path d="M476.5,562.5l0,-15" class="g4_55" />
<path d="M568.5,562.5l0,-15" class="g4_55" />
<path d="M41.5,563.5l154,0" class="g4_55" />
<path d="M41.5,579.5l0,-16" class="g4_55" />
<path d="M195.5,563.5l37,0" class="g4_55" />
<path d="M195.5,579.5l0,-16" class="g4_55" />
<path d="M232.5,563.5l36,0" class="g4_55" />
<path d="M232.5,579.5l0,-16" class="g4_55" />
<path d="M268.5,563.5l33,0" class="g4_55" />
<path d="M268.5,579.5l0,-16" class="g4_55" />
<path d="M301.5,563.5l86,0" class="g4_55" />
<path d="M301.5,579.5l0,-16" class="g4_55" />
<path d="M387.5,563.5l89,0" class="g4_55" />
<path d="M387.5,579.5l0,-16" class="g4_55" />
<path d="M476.5,563.5l92,0" class="g4_55" />
<path d="M476.5,579.5l0,-16" class="g4_55" />
<path d="M568.5,579.5l0,-16" class="g4_55" />
<path d="M41.5,579.5l154,0" class="g4_55" />
<path d="M41.5,595.5l0,-16" class="g4_55" />
<path d="M195.5,579.5l37,0" class="g4_55" />
<path d="M195.5,595.5l0,-16" class="g4_55" />
<path d="M232.5,579.5l36,0" class="g4_55" />
<path d="M232.5,595.5l0,-16" class="g4_55" />
<path d="M268.5,579.5l33,0" class="g4_55" />
<path d="M268.5,595.5l0,-16" class="g4_55" />
<path d="M301.5,579.5l86,0" class="g4_55" />
<path d="M301.5,595.5l0,-16" class="g4_55" />
<path d="M387.5,579.5l89,0" class="g4_55" />
<path d="M387.5,595.5l0,-16" class="g4_55" />
<path d="M476.5,579.5l92,0" class="g4_55" />
<path d="M476.5,595.5l0,-16" class="g4_55" />
<path d="M568.5,595.5l0,-16" class="g4_55" />
<path d="M41.5,595.5l154,0" class="g4_55" />
<path d="M41.5,612.5l0,-16" class="g4_55" />
<path d="M195.5,595.5l37,0" class="g4_55" />
<path d="M195.5,612.5l0,-16" class="g4_55" />
<path d="M232.5,595.5l36,0" class="g4_55" />
<path d="M232.5,612.5l0,-16" class="g4_55" />
<path d="M268.5,595.5l33,0" class="g4_55" />
<path d="M268.5,612.5l0,-16" class="g4_55" />
<path d="M301.5,595.5l86,0" class="g4_55" />
<path d="M301.5,612.5l0,-16" class="g4_55" />
<path d="M387.5,595.5l89,0" class="g4_55" />
<path d="M387.5,612.5l0,-16" class="g4_55" />
<path d="M476.5,595.5l92,0" class="g4_55" />
<path d="M476.5,612.5l0,-16" class="g4_55" />
<path d="M568.5,612.5l0,-16" class="g4_55" />
<path d="M41.5,612.5l154,0" class="g4_55" />
<path d="M41.5,628.5l0,-16" class="g4_55" />
<path d="M195.5,612.5l37,0" class="g4_55" />
<path d="M195.5,628.5l0,-16" class="g4_55" />
<path d="M232.5,612.5l36,0" class="g4_55" />
<path d="M232.5,628.5l0,-16" class="g4_55" />
<path d="M268.5,612.5l33,0" class="g4_55" />
<path d="M268.5,628.5l0,-16" class="g4_55" />
<path d="M301.5,612.5l86,0" class="g4_55" />
<path d="M301.5,628.5l0,-16" class="g4_55" />
<path d="M387.5,612.5l89,0" class="g4_55" />
<path d="M387.5,628.5l0,-16" class="g4_55" />
<path d="M476.5,612.5l92,0" class="g4_55" />
<path d="M476.5,628.5l0,-16" class="g4_55" />
<path d="M568.5,628.5l0,-16" class="g4_55" />
<path d="M41.5,628.5l154,0" class="g4_55" />
<path d="M41.5,644.5l0,-16" class="g4_55" />
<path d="M195.5,628.5l37,0" class="g4_55" />
<path d="M195.5,644.5l0,-16" class="g4_55" />
<path d="M232.5,628.5l36,0" class="g4_55" />
<path d="M232.5,644.5l0,-16" class="g4_55" />
<path d="M268.5,628.5l33,0" class="g4_55" />
<path d="M268.5,644.5l0,-16" class="g4_55" />
<path d="M301.5,628.5l86,0" class="g4_55" />
<path d="M301.5,644.5l0,-16" class="g4_55" />
<path d="M387.5,628.5l89,0" class="g4_55" />
<path d="M387.5,644.5l0,-16" class="g4_55" />
<path d="M476.5,628.5l92,0" class="g4_55" />
<path d="M476.5,644.5l0,-16" class="g4_55" />
<path d="M568.5,644.5l0,-16" class="g4_55" />
<path d="M41.5,645.5l154,0" class="g4_55" />
<path d="M195.5,645.5l37,0" class="g4_55" />
<path d="M232.5,645.5l36,0" class="g4_55" />
<path d="M268.5,645.5l33,0" class="g4_55" />
<path d="M301.5,645.5l86,0" class="g4_55" />
<path d="M387.5,645.5l89,0" class="g4_55" />
<path d="M476.5,645.5l92,0" class="g4_55" />
<path d="M41.5,154.5l154,0" class="g4_55" />
<path d="M41.5,170.5l0,-16" class="g4_55" />
<path d="M301.5,154.5l86,0" class="g4_55" />
<path d="M387.5,154.5l89,0" class="g4_55" />
<path d="M476.5,154.5l92,0" class="g4_55" />
<path d="M568.5,170.5l0,-16" class="g4_55" />
<path d="M41.5,170.5l154,0" class="g4_55" />
<path d="M195.5,170.5l37,0" class="g4_55" />
<path d="M232.5,170.5l36,0" class="g4_55" />
<path d="M268.5,170.5l33,0" class="g4_55" />
<path d="M301.5,170.5l86,0" class="g4_55" />
<path d="M387.5,170.5l89,0" class="g4_55" />
<path d="M476.5,170.5l92,0" class="g4_55" />
<path d="M195.5,115.5l37,0" class="g4_55" />
<path d="M195.5,137.5l0,-21" class="g4_55" />
<path d="M232.5,115.5l36,0" class="g4_55" />
<path d="M268.5,115.5l33,0" class="g4_55" />
<path d="M301.5,137.5l0,-21" class="g4_55" />
<path d="M195.5,137.5l37,0" class="g4_55" />
<path d="M195.5,153.5l0,-15" class="g4_55" />
<path d="M232.5,137.5l36,0" class="g4_55" />
<path d="M232.5,153.5l0,-15" class="g4_55" />
<path d="M268.5,137.5l33,0" class="g4_55" />
<path d="M268.5,153.5l0,-15" class="g4_55" />
<path d="M301.5,153.5l0,-15" class="g4_55" />
<path d="M195.5,154.5l37,0" class="g4_55" />
<path d="M232.5,154.5l36,0" class="g4_55" />
<path d="M268.5,154.5l33,0" class="g4_55" />
</svg>