<?xml version="1.0" encoding="UTF-8" standalone="no"?>
<!DOCTYPE svg PUBLIC "-//W3C//DTD SVG 1.1//EN"
"http://www.w3.org/Graphics/SVG/1.1/DTD/svg11.dtd">
<svg version="1.1" xmlns="http://www.w3.org/2000/svg" xmlns:xlink="http://www.w3.org/1999/xlink">
<defs>
<clipPath id="c0_8"><path d="M200.5,877.5l0,-27l193,0l0,27Z" /></clipPath>
<clipPath id="c1_8"><path d="M0.5,935.5l0,-935l605,0l0,935Z" /></clipPath>
<style type="text/css"><![CDATA[
.g3_8{
}
.g1_8{
fill: #DC4244;
}
.g5_8{
fill: #DB003C;
}
.g2_8{
fill: none;
stroke: #DC4244;
stroke-width: 1;
stroke-linecap: butt;
stroke-linejoin: miter;
}
.g4_8{
fill: none;
stroke: #000000;
stroke-width: 1;
stroke-linecap: butt;
stroke-linejoin: miter;
}
]]></style>
</defs>
<g clip-path="url(#c0_8)">
<path d="M217,862l2,0l2,0l3,0l2,0l0,-12l-26,0l0,27l26,0l0,-12l-2,0l0,6c0,2,-2,3,-3,3l-15,0c-2,0,-4,-1,-4,-3l0,-15c0,-2,2,-3,4,-3l15,0c1,0,3,1,3,3l0,4l-3,0l0,-2c0,-2,-1,-3,-2,-3l-12,0c-1,0,-2,1,-2,3l0,11c0,2,1,3,2,3l12,0c1,0,2,-1,2,-3l0,-4l-2,0l0,3c0,1,-1,1,-2,1l-8,0c-1,0,-2,0,-2,-1l0,-9c0,-1,1,-2,2,-2l3,0l5,0l2,0l0,2l0,1l-3,0l-4,0l-1,0c-1,0,-1,0,-1,1l0,5c0,1,0,1,1,1l5,0c0,0,1,0,1,-1l0,-1l-5,0l0,-3l5,0Z" class="g1_8" />
<path d="M227.5,877.5l0,-2" class="g2_8" />
<path d="M231,877l0,-1c0,-1,0,-1,0,-1l-1,2l-1,-2l0,1l0,1l0,-2l1,1l0,-1l1,0l0,2Z" class="g1_8" />
<path d="M242,862l6,0l0,7c-2,0,-3,0,-5,0c-4,0,-7,-1,-7,-6c0,-4,2,-6,7,-6c2,0,5,1,5,4l-3,0c0,-2,-1,-2,-2,-2c-3,0,-4,2,-4,4c0,2,1,4,4,4c1,0,2,0,2,0l0,-2l-3,0l0,-3Z" class="g3_8" />
<path d="M250,857l10,0l0,2l-7,0l0,3l6,0l0,2l-6,0l0,3l7,0l0,2l-10,0Z" class="g3_8" />
<path d="M270,857l3,0l0,12l-3,0l-6,-8l0,8l-3,0l0,-12l4,0l5,8Z" class="g3_8" />
<path d="M275,857l10,0l0,2l-7,0l0,3l6,0l0,2l-6,0l0,3l7,0l0,2l-10,0Z" class="g3_8" />
<path d="M286,857l8,0c3,0,3,2,3,3c0,2,0,3,-1,3c1,0,1,2,1,3c0,1,0,2,1,3l-4,0c0,-1,0,-1,0,-2c0,-2,-1,-2,-1,-2l-4,0l0,4l-3,0ZM289,862l4,0c0,0,1,0,1,-1c0,-1,-1,-2,-1,-2l-4,0l0,3Z" class="g3_8" />
<path d="M306,866l-5,0l-1,3l-3,0l5,-12l3,0l5,12l-3,0ZM304,860l-2,4l3,0Z" class="g3_8" />
<path d="M311,857l3,0l0,10l6,0l0,2l-9,0Z" class="g3_8" />
<path d="M332,864c-1,3,-3,5,-6,5c-3,0,-5,-2,-5,-6c0,-3,1,-6,5,-6c3,0,5,1,5,4l-1,0c0,-2,-2,-3,-4,-3c-2,0,-4,2,-4,5c0,3,1,5,4,5c3,0,4,-1,4,-4l2,0Z" class="g3_8" />
<path d="M340,865l-6,0l-1,4l-1,0l5,-12l1,0l5,12l-2,0ZM337,858l-2,6l4,0Z" class="g3_8" />
<path d="M343,857l6,0c2,0,4,1,4,3c0,2,-1,3,-2,3c1,0,1,1,1,3c1,1,1,3,1,3l-1,0c-1,0,-1,-1,-1,-3c0,-2,0,-2,-2,-2l-4,0l0,5l-2,0ZM345,863l4,0c1,0,2,-1,2,-3c0,-1,-1,-2,-2,-2l-4,0l0,5Z" class="g3_8" />
<path d="M354,857l6,0c2,0,3,1,3,3c0,1,0,2,-1,3c1,0,2,1,2,2c0,3,-2,4,-4,4l-6,0ZM355,862l5,0c1,0,2,0,2,-2c0,-1,-1,-2,-2,-2l-5,0ZM355,868l5,0c2,0,3,-1,3,-3c0,-1,-1,-2,-3,-2l-5,0l0,5Z" class="g3_8" />
<path d="M366.5,869.5l0,-12" class="g4_8" />
<path d="M369,857l5,0c3,0,5,2,5,6c0,3,-2,6,-5,6l-5,0ZM370,868l4,0c2,0,4,-1,4,-5c0,-3,-1,-5,-4,-5l-4,0l0,10Z" class="g3_8" />
<path d="M380,857l9,0l0,1l-8,0l0,4l7,0l0,1l-7,0l0,5l8,0l0,1l-9,0Z" class="g3_8" />
<path d="M390,868c0,-1,1,-1,1,-1c1,0,2,0,2,1c0,1,-1,1,-2,1c0,0,-1,0,-1,-1m1,1c1,0,1,0,1,-1c0,-1,0,-1,-1,-1c0,0,-1,0,-1,1c0,1,1,1,1,1m0,0l0,-2c1,0,1,0,1,1l0,1l-1,-1ZM391,868c0,0,1,0,1,0c0,0,-1,-1,-1,-1l0,1Z" class="g3_8" />
</g>
<g clip-path="url(#c1_8)">
<path d="M0,935l605,0l0,-48L0,887l0,48Z" class="g3_8" />
<path d="M0,41l605,0L605,0L0,0L0,41Z" class="g5_8" />
</g>
<image x="249" y="281" width="296" height="223" xlink:href="img/1.png" />
<image x="41" y="282" width="204" height="225" xlink:href="img/2.png" />
<image x="41" y="577" width="337" height="219" xlink:href="img/3.png" />
</svg>